<svg xmlns="http://www.w3.org/2000/svg" viewBox="0 0 1000 990"><mask id="mask"><path d="M1000,0H0V718.31H179.2c38.38,142.38,167.45,247.1,320.8,247.1s282.42-104.72,320.8-247.1H1000Z" fill="white"></path></mask><g mask="url(#mask)"><circle cx="500" cy="630.1601" r="332.441995" fill="#85c5e5"></circle><path d="M610,758.72c90.76,0,72,114.24,72.87,241.28H610Z" fill="#A56941"></path><path d="M632.74,831.87,610,870l11.38,130h31.76C653.91,819.73,632.74,831.87,632.74,831.87Z" fill="#8D5638"></path><path d="M233.25,500c0-147.32,119.43-266.75,266.75-266.75S766.75,352.68,766.75,500A266.22,266.22,0,0,1,668.1,707.12q-8.21,6.68-16.94,12.69C591,758,515,758,446.39,751.89c-6.66-1-13.3-2.26-19.89-3.71-26.33-5.8-51.82-14.75-75.37-27.8Q342.4,715,334.2,708.76a199.59,199.59,0,0,1-15.8-13.38q-7.14-6.63-13.79-13.78A265.86,265.86,0,0,1,233.25,500Z" fill="#A56941"></path><path d="M269.61,634.48c.7,1.2,1.39,2.4,2.11,3.58.43.72.88,1.42,1.33,2.14.66,1.07,1.32,2.14,2,3.19.48.76,1,1.5,1.46,2.24.66,1,1.32,2,2,3,.51.76,1,1.52,1.56,2.28.66,1,1.32,1.92,2,2.88.54.77,1.1,1.53,1.65,2.3s1.34,1.85,2,2.77,1.15,1.53,1.73,2.29,1.37,1.8,2.07,2.7,1.19,1.51,1.79,2.26,1.41,1.76,2.12,2.63,1.23,1.49,1.85,2.23,1.44,1.72,2.17,2.57,1.27,1.47,1.91,2.2l2.22,2.5c.65.73,1.31,1.44,2,2.16.86.94,1.73,1.87,2.6,2.79l1.21,1.28c1.29,1.34,2.59,2.68,3.91,4l.26.27c1.29,1.28,2.6,2.55,3.91,3.81l1.58,1.5c.95.89,1.9,1.78,2.86,2.66l1.16,1.06c1,.94,2.09,1.86,3.14,2.78q4.9,4.27,10,8.19,8.19,6.24,16.93,11.62c23.55,13,49,22,75.37,27.8,6.59,1.45,13.23,2.7,19.89,3.71,42.1,3.75,87,5.18,129.28-3.08C508.45,729,185.59,612.74,388.8,257.48h0c-2.72,1.25-5.4,2.54-8.06,3.88l-.59.29c-1.22.61-2.44,1.24-3.65,1.88l-1,.53c-3.76,2-7.48,4.07-11.13,6.23l-.9.53c-1.16.69-2.31,1.39-3.46,2.1l-.87.54q-5.36,3.35-10.55,6.93l-1.08.75c-1.09.76-2.16,1.52-3.23,2.29l-.66.47q-3.27,2.39-6.46,4.84l-.62.48c-1,.78-2,1.58-3,2.39l-1.17.94c-1,.81-2,1.62-3,2.45l0,0c-2.11,1.75-4.19,3.55-6.24,5.37l-1.14,1-2.69,2.45L318,305q-4.28,4-8.37,8.17l-1.38,1.41c-.79.82-1.58,1.64-2.36,2.47-.46.49-.92,1-1.37,1.48q-2.06,2.2-4.06,4.46c-.45.51-.91,1-1.36,1.54-.71.81-1.41,1.63-2.11,2.45l-1.51,1.79c-.68.81-1.36,1.62-2,2.44-.54.66-1.08,1.33-1.61,2-1.07,1.33-2.12,2.66-3.16,4-.54.7-1.08,1.4-1.61,2.11s-1.2,1.59-1.79,2.4-1.07,1.45-1.59,2.18-1.13,1.55-1.68,2.33q-1.42,2-2.8,4.05c-.5.73-1,1.48-1.49,2.22s-1.1,1.66-1.64,2.5l-1.49,2.31-1.68,2.71c-.43.69-.86,1.38-1.28,2.07-.89,1.46-1.75,2.93-2.61,4.4l-1.22,2.16c-.54.95-1.08,1.91-1.61,2.87-.4.73-.8,1.46-1.19,2.19-.64,1.19-1.27,2.39-1.9,3.59l-1.2,2.34c-.64,1.28-1.28,2.55-1.91,3.84-.33.69-.67,1.39-1,2.09-.52,1.09-1,2.19-1.53,3.29-.31.66-.61,1.32-.91,2q-1.11,2.47-2.17,5c-.22.52-.43,1.05-.65,1.57-.53,1.27-1.05,2.54-1.56,3.82-.27.67-.53,1.34-.79,2-.5,1.26-1,2.53-1.45,3.8-.21.55-.42,1.1-.62,1.65q-.94,2.63-1.85,5.26l-.56,1.7q-.66,2-1.29,4l-.6,1.91c-.47,1.54-.93,3.08-1.37,4.63-.1.33-.2.66-.29,1q-.78,2.76-1.5,5.54c-.16.59-.3,1.19-.45,1.78-.35,1.39-.69,2.78-1,4.18l-.42,1.75c-.43,1.9-.85,3.8-1.24,5.71l-.15.77q-.51,2.55-1,5.1c-.11.61-.21,1.21-.32,1.82-.26,1.49-.51,3-.74,4.5-.08.51-.17,1-.24,1.52-.3,1.95-.57,3.91-.83,5.88l-.15,1.3c-.2,1.59-.38,3.19-.55,4.79-.06.6-.13,1.2-.19,1.81-.16,1.68-.31,3.37-.45,5.06,0,.35-.06.69-.08,1q-.22,3-.39,6.05c0,.53,0,1.07-.07,1.6q-.1,2.36-.18,4.71c0,.59,0,1.18,0,1.77,0,2.05-.08,4.11-.08,6.17,0,0,0,.07,0,.1,0,2.22,0,4.42.08,6.62,0,.76.06,1.52.08,2.28.05,1.47.1,2.94.17,4.41,0,.89.11,1.77.16,2.66.08,1.33.15,2.66.25,4,.07,1,.16,1.89.24,2.83.11,1.26.21,2.52.34,3.77.09,1,.21,1.94.31,2.91.14,1.21.27,2.43.42,3.64.12,1,.26,2,.39,2.95.16,1.18.32,2.37.5,3.55.15,1,.31,2,.47,3,.18,1.16.37,2.33.57,3.49.18,1,.36,2,.55,3,.21,1.15.43,2.3.65,3.44s.41,2,.62,3c.24,1.14.48,2.27.74,3.4s.44,2,.68,2.93c.26,1.13.54,2.25.82,3.36s.49,1.95.74,2.91c.3,1.12.6,2.23.91,3.34.26,1,.53,1.92.81,2.87.32,1.11.65,2.21,1,3.31s.58,1.89.88,2.84.7,2.19,1.06,3.28.62,1.87.94,2.8c.38,1.09.76,2.18,1.15,3.27.33.91.65,1.83,1,2.74l1.24,3.27c.35.89.69,1.79,1,2.68.44,1.09.89,2.19,1.34,3.28.36.86.71,1.73,1.08,2.59.47,1.12,1,2.22,1.45,3.33.37.82.73,1.65,1.1,2.47.52,1.16,1.07,2.3,1.6,3.44l1.08,2.3c.61,1.26,1.24,2.5,1.87,3.75.32.63.62,1.27.95,1.9q2.88,5.61,6,11.07C268.88,633.26,269.25,633.87,269.61,634.48Z" fill="#8D5638"></path><path d="M233.25,500c0-147.32,119.43-266.75,266.75-266.75S766.75,352.68,766.75,500A266.22,266.22,0,0,1,668.1,707.12q-8.21,6.68-16.94,12.69C591,758,515,758,446.39,751.89c-6.66-1-13.3-2.26-19.89-3.71-26.33-5.8-51.82-14.75-75.37-27.8Q342.4,715,334.2,708.76a199.59,199.59,0,0,1-15.8-13.38q-7.14-6.63-13.79-13.78A265.86,265.86,0,0,1,233.25,500Z" fill="none" stroke="#592d3d" stroke-miterlimit="10" stroke-width="12px"></path><path d="M386.12,758.72c-90.77,0-72,114.24-72.87,241.28h72.87Z" fill="#A56941"></path><path d="M367.23,831.87,390,870l-11.39,130H346.88C346.07,819.73,367.23,831.87,367.23,831.87Z" fill="#8D5638"></path><path d="M619.47,1070H380.53a13.28,13.28,0,0,1-13.27-13.28V772a13.28,13.28,0,0,1,13.27-13.28H613.76c13.09,0,19,7.66,19,19.88v278.08A13.28,13.28,0,0,1,619.47,1070Z" fill="#A56941"></path><path d="M629.05,766.62a19.33,19.33,0,0,1-2.51-4,17.25,17.25,0,0,0-8.28-3.51,28.88,28.88,0,0,0-4.5-.34H380.53A13.28,13.28,0,0,0,367.26,772c29,10.42,83.29,16.24,132.74,16.24C563.06,788.24,604.38,778.89,629.05,766.62Z" fill="#8D5638"></path><path d="M610,758.72c90.76,0,72,114.24,72.87,241.28H632.74" fill="none" stroke="#592d3d" stroke-linecap="square" stroke-miterlimit="10" stroke-width="12px"></path><path d="M386.12,758.72c-90.77,0-72,114.24-72.87,241.28h50.07" fill="none" stroke="#592d3d" stroke-linecap="square" stroke-miterlimit="10" stroke-width="12px"></path><path d="M380.53,758.82l233.23-.1" fill="none" stroke="#592d3d" stroke-miterlimit="10" stroke-width="12px"></path><path d="M380.53,1070H497.15C388,1070,396.24,838.82,367.26,838.82v217.86A13.28,13.28,0,0,0,380.53,1070Z" fill="#8D5638"></path><path d="M361.26,860.85c-.19-3.67-.11-7.34.05-11s.47-7.35.86-11c.2-1.84.4-3.67.65-5.51s.49-3.67.85-5.51a44.18,44.18,0,0,1,3.59-11,44.18,44.18,0,0,1,3.59,11c.36,1.84.62,3.67.85,5.51s.45,3.67.65,5.51c.38,3.67.68,7.34.85,11s.25,7.34.06,11Z" fill="#592d3d"></path><path d="M632.74,870v8c.26,34,.26,69,0,102.75,0,2.87,0,5.72,0,8.53v67.41A13.28,13.28,0,0,1,619.47,1070H380.53a13.28,13.28,0,0,1-13.27-13.28V998.52c0-2.51,0-5.07,0-7.65-.25-34.87-.25-69.87,0-105.3V860.85" fill="none" stroke="#592d3d" stroke-miterlimit="10" stroke-width="12px"></path><path d="M626.74,870c-.19-4.17-.1-8.35.06-12.53s.47-8.35.85-12.53c.2-2.09.41-4.18.65-6.27s.49-4.17.85-6.26a55.09,55.09,0,0,1,3.59-12.53,55.09,55.09,0,0,1,3.59,12.53c.36,2.09.62,4.18.85,6.26s.45,4.18.65,6.27c.38,4.18.69,8.35.85,12.53s.25,8.36.06,12.53Z" fill="#592d3d"></path><path d="M502.07,878.86A69.31,69.31,0,1,1,371,847.39" fill="none" stroke="#592d3d" stroke-miterlimit="10" stroke-width="12px"></path><path d="M371,847.39a69.68,69.68,0,0,1,15-19.67" fill="#A56941"></path><path d="M365.65,844.66a27,27,0,0,1,3.38-5.84,37.22,37.22,0,0,1,4.53-5c.84-.76,1.69-1.5,2.58-2.19a21.1,21.1,0,0,1,2.81-1.92,15,15,0,0,1,7-2,25,25,0,0,1-1.75,6.81c-.39,1-.83,1.88-1.29,2.77l-1.3,2.67c-.85,1.76-1.69,3.49-2.55,5.19a54.51,54.51,0,0,1-2.76,5Z" fill="#592d3d"></path><path d="M489.33,838.82a69,69,0,0,1,12.74,40" fill="#A56941"></path><path d="M489.33,838.82a26.55,26.55,0,0,1,8.69,7.55,38.8,38.8,0,0,1,3.1,4.79c.93,1.67,1.77,3.39,2.55,5.15a55.12,55.12,0,0,1,3.46,11,48,48,0,0,1,.94,11.53h-12c-.19-3.25-.36-6.48-.7-9.73s-.77-6.48-1.4-9.74l-.5-2.44-.58-2.45c-.42-1.63-.87-3.26-1.29-4.93A104.17,104.17,0,0,1,489.33,838.82Z" fill="#592d3d"></path><path d="M641.65,878.86a69.14,69.14,0,0,0-21.94-50.6" fill="#A56941"></path><path d="M635.65,878.86A107,107,0,0,0,634.39,866a81.92,81.92,0,0,0-3.12-12.67c-.34-1-.74-2.07-1.11-3.11s-.84-2.05-1.25-3.09-.94-2-1.38-3.05l-1.46-3c-2-4.1-4.17-8.19-6.36-12.75a35.76,35.76,0,0,1,12.22,8.61c.83.94,1.7,1.86,2.47,2.85s1.54,2,2.25,3,1.43,2.09,2.07,3.18,1.31,2.18,1.88,3.32A62.19,62.19,0,0,1,646,863.58a56.6,56.6,0,0,1,1.62,15.28Z" fill="#592d3d"></path><path d="M503,878.86a69.31,69.31,0,1,0,138.61,0" fill="none" stroke="#592d3d" stroke-miterlimit="10" stroke-width="12px"></path><path d="M515.77,838.82a69,69,0,0,0-12.73,40" fill="#A56941"></path><path d="M515.77,838.82a104.17,104.17,0,0,1-2.27,10.75c-.42,1.67-.87,3.3-1.29,4.93l-.57,2.45-.5,2.44c-.63,3.26-1.09,6.5-1.41,9.74s-.5,6.48-.69,9.73H497a47,47,0,0,1,.94-11.53,54.48,54.48,0,0,1,3.46-11c.77-1.76,1.61-3.48,2.54-5.15a40,40,0,0,1,3.1-4.79A26.66,26.66,0,0,1,515.77,838.82Z" fill="#592d3d"></path><path d="M470.5,897.78h53.9v19.7c-17.74-6.05-35.71-5.9-53.9,0Z" fill="#FFFFFF" stroke="#592d3d" stroke-miterlimit="10" stroke-width="12px"></path><path d="M638.1,878.86a69.06,69.06,0,0,0-18.63-47.28c-4.22-4.52-44.27,6.19-67.81,27.26-23.11,20.69-43.23,54.49-40.35,58.75A69.31,69.31,0,0,0,638.1,878.86Z" fill="#FFFFFF" stroke="#592d3d" stroke-miterlimit="10" stroke-width="12px"></path><path d="M598.11,848.39c-6.12,3.67-12.15,7.18-18,11a154.79,154.79,0,0,0-16.53,12.18c-5.15,4.46-10.11,9.32-15,14.26s-9.69,10-14.75,15.07a100,100,0,0,1,11.18-18.17A106.06,106.06,0,0,1,559.72,867a84.36,84.36,0,0,1,18.14-11.73A83.45,83.45,0,0,1,598.11,848.39Z" fill="#ffffff"></path><path d="M361.9,878.86a69.06,69.06,0,0,1,18.63-47.28c4.22-4.52,44.27,6.19,67.81,27.26,23.11,20.69,43.23,54.49,40.35,58.75A69.31,69.31,0,0,1,361.9,878.86Z" fill="#FFFFFF" stroke="#592d3d" stroke-miterlimit="10" stroke-width="12px"></path><path d="M455.75,938.92a85.36,85.36,0,0,1-85.36-85.36,86.38,86.38,0,0,1,.44-8.71,69.31,69.31,0,0,0,96.31,93.29A85.67,85.67,0,0,1,455.75,938.92Z" fill="#E2E2E2"></path><path d="M361.9,878.86a69.06,69.06,0,0,1,18.63-47.28c4.22-4.52,44.27,6.19,67.81,27.26,23.11,20.69,43.23,54.49,40.35,58.75A69.31,69.31,0,0,1,361.9,878.86Z" fill="none" stroke="#592d3d" stroke-miterlimit="10" stroke-width="12px"></path><path d="M401.89,848.39a83.45,83.45,0,0,1,20.25,6.87A84.36,84.36,0,0,1,440.28,867a106.06,106.06,0,0,1,14.65,15.71,100,100,0,0,1,11.18,18.17c-5.06-5-9.84-10.13-14.75-15.07s-9.84-9.8-15-14.26a154.79,154.79,0,0,0-16.53-12.18C414,855.57,408,852.06,401.89,848.39Z" fill="#ffffff"></path><path d="M568.44,849.8c-21.18,6.89-42,17.48-62.85,19.67-26.75,2.82-54.1-13.37-82.3-21.08-2.15-2.58-18.35-14.44-33.47-13.94-11.88.4-15.09,4.3-18.4,8.19l-4.16,213.48a13.27,13.27,0,0,0,13.27,13.27H619.47a13.27,13.27,0,0,0,13.27-13.27l-2.38-215.36c-4.43,0-7.1-9.4-20.41-5.09C593.66,841,569.71,848.28,568.44,849.8Z" fill="#FFFFFF"></path><polygon points="632.74 831.31 609.95 869.4 621.34 999.43 632.94 999.43 632.94 893.78 632.74 831.31" fill="#E2E2E2"></polygon><path d="M380.53,1069.39H497.15c-109.2,0-100.91-231.14-129.89-231.14v217.87A13.27,13.27,0,0,0,380.53,1069.39Z" fill="#E2E2E2"></path><path d="M361.26,860.4a63.71,63.71,0,0,1-.1-8.29q.19-4.15.71-8.31c.18-1.39.35-2.77.57-4.16s.44-2.77.78-4.16a27.84,27.84,0,0,1,3.44-8.35,27.54,27.54,0,0,1,3.73,8.22c.39,1.38.68,2.76.93,4.13s.5,2.76.72,4.14c.44,2.75.79,5.51,1,8.27a62,62,0,0,1,.21,8.29Z" fill="#592d3d"></path><path d="M632.74,869.4v8c.26,34,.26,69,0,102.76,0,2.87,0,5.72,0,8.53v67.41a13.27,13.27,0,0,1-13.27,13.27H380.53a13.27,13.27,0,0,1-13.27-13.27V998q0-3.76,0-7.65c-.25-34.86-.25-69.86,0-105.3V860.29" fill="none" stroke="#592d3d" stroke-miterlimit="10" stroke-width="12px"></path><path d="M626.76,869.38a65.79,65.79,0,0,1,.65-8.53q.57-4.25,1.46-8.47c.3-1.41.6-2.82.94-4.22s.69-2.81,1.15-4.21a29.21,29.21,0,0,1,4.18-8.28,28.9,28.9,0,0,1,3,8.78c.26,1.45.42,2.89.55,4.33s.25,2.88.35,4.31c.18,2.87.28,5.74.25,8.59a67.65,67.65,0,0,1-.54,8.54Z" fill="#592d3d"></path><path d="M557.91,889.36c4.41-.78,8.76-1.39,13.1-2l13-1.93c4.31-.65,8.61-1.36,12.91-2.1s8.61-1.58,13.07-2.2a62.58,62.58,0,0,1-12.33,5.26,87,87,0,0,1-13,3,94.61,94.61,0,0,1-13.33,1.11A65.72,65.72,0,0,1,557.91,889.36Z" fill="#592d3d"></path><path d="M426.88,961.63a69.32,69.32,0,0,0,65.62-47,71,71,0,0,1-118.19,6.64L374.26,936C387,951.63,405.15,961.63,426.88,961.63Z" opacity="0.1"></path><path d="M573.12,961.63a69.32,69.32,0,0,1-65.62-47,71,71,0,0,0,118.19,6.64l0,14.72C613,951.63,594.85,961.63,573.12,961.63Z" opacity="0.1"></path><path d="M407,943.81A69.33,69.33,0,0,1,380.42,831.7" fill="#FFFFFF"></path><path d="M407,943.81a57.14,57.14,0,0,1-31.21-16l-1.62-1.6c-.53-.54-1-1.13-1.53-1.69s-1-1.15-1.48-1.73a22,22,0,0,1-1.43-1.79c-.9-1.23-1.81-2.46-2.68-3.72l-2.37-3.93a69,69,0,0,1-6.71-17.13,70.52,70.52,0,0,1-1.69-18.3,64.09,64.09,0,0,1,3.4-17.93c.26-.71.49-1.43.76-2.14l.88-2.1c.55-1.4,1.26-2.74,1.91-4.09a60.79,60.79,0,0,1,4.74-7.63c.85-1.21,1.82-2.35,2.75-3.49s1.94-2.23,3-3.23a47.65,47.65,0,0,1,6.73-5.59c-5.79,10-9.9,20.19-11.66,30.67A78.09,78.09,0,0,0,367.61,878a84.63,84.63,0,0,0,2,15.41,80.81,80.81,0,0,0,5.12,14.65,76.2,76.2,0,0,0,8.08,13.47,79,79,0,0,0,10.81,11.95A115,115,0,0,0,407,943.81Z" fill="#592d3d"></path><path d="M593.05,943.81A69.33,69.33,0,0,0,619.58,831.7" fill="#FFFFFF"></path><path d="M593.05,943.81a115,115,0,0,0,13.35-10.29,79,79,0,0,0,10.81-11.95,76.2,76.2,0,0,0,8.08-13.47,80.81,80.81,0,0,0,5.12-14.65,84.63,84.63,0,0,0,2-15.41,78.09,78.09,0,0,0-1.15-15.67c-1.76-10.48-5.87-20.64-11.66-30.67a47.65,47.65,0,0,1,6.73,5.59c1.08,1,2,2.14,3,3.23s1.9,2.28,2.75,3.49a60.79,60.79,0,0,1,4.74,7.63c.65,1.35,1.36,2.69,1.91,4.09l.88,2.1c.27.71.5,1.43.76,2.14a64.09,64.09,0,0,1,3.4,17.93,70.52,70.52,0,0,1-1.69,18.3,69,69,0,0,1-6.71,17.13L633,917.26c-.87,1.26-1.78,2.49-2.68,3.72a22,22,0,0,1-1.43,1.79c-.49.58-1,1.16-1.48,1.73s-1,1.15-1.53,1.69l-1.62,1.6A57.14,57.14,0,0,1,593.05,943.81Z" fill="#592d3d"></path><path d="M329.09,794.17c56.12,35.58,168.48,75.53,168.48,75.53l-.16,14S397,879.36,316.32,844.9C316.32,814.38,329.09,794.17,329.09,794.17Z" fill="#FFFFFF" stroke="#592d3d" stroke-miterlimit="10" stroke-width="12px"></path><path d="M648.66,870.5s17.7-1.85,30.9-9c-.11-4.25-.6-8.11-.6-8.11l-30.85,10.68Z" fill="#8D5638"></path><path d="M671.55,794.43C619,831.8,503,869.7,503,869.7l.17,14s100.41-4.3,181.08-38.76C684.29,822.67,671.55,794.43,671.55,794.43Z" fill="#FFFFFF" stroke="#592d3d" stroke-miterlimit="10" stroke-width="12px"></path><path d="M320.63,822.65c.28.24.83.61,1.27.92s1,.64,1.45.95c1,.6,2,1.21,3.08,1.77,2.08,1.16,4.23,2.25,6.43,3.28s4.42,2,6.65,3c1.12.5,2.23,1,3.34,1.58s2.22,1.1,3.31,1.76a40.85,40.85,0,0,1-7.42-1.08q-3.63-.9-7.17-2.15a65,65,0,0,1-7-2.89c-1.13-.56-2.26-1.16-3.36-1.84-.55-.34-1.09-.69-1.64-1.06a15.93,15.93,0,0,1-1.67-1.31Z" fill="#592d3d"></path><path d="M670.06,788.32q3.3-3.32,6.5-6.71c45.16-54.71,48.7-112.39,57.87-148.37V619l-2.44.84c.83-1.52,1.65-3,2.44-4.56-.06-.1-3.49,3.38-3.55,3.28A33.65,33.65,0,0,1,725.8,622l-32.55,11.28a220.36,220.36,0,0,1-43.89,3.82c-63-.26-63.24-14.87-113.2-20l-96.49,1.58c-25.69,3.84-37.06,11.81-88,12.85-44.15.9-83.62-10-83.62-10v12.68c14,36.84,4.58,64.43,29,110.49,0-.65,0-1.31-.05-2-4.39-21.71,0-41.57,2.12-49.19.21-1.88.36-2.92.36-2.92v-.07c0-.12,0-.2,0-.2l0,.1c0,.14.11.45.22.9.23-.72.36-1.11.36-1.11s.89,4.91,2.54,12.74c3.93,15.48,11.16,43,19.45,70.08.92,2.43,1.87,4.81,2.84,7.11.07.21.15.44.23.65,27.94,29.88,62.13,55.36,93.14,74.5,3.34,2,6.51,3.87,9.48,5.61a86.4,86.4,0,0,1,2.41-43.06s.07.38.21,1.08c.24-.77.4-1.19.4-1.19s11.43,47.45,34.52,62.83c.57.24,1.15.47,1.73.66l-.44.16.1.06c.58.33,1.18.65,1.77,1a208.45,208.45,0,0,0,21.34,8.53c5.41,1.57,9.84,2.39,12,2.39,4.75,0,32-10.61,48.69-49.07,1.1-3.27,1.63-5.32,1.63-5.32l.28.69c.11-.27.22-.53.32-.8A56,56,0,0,1,560.7,869a526,526,0,0,0,72.06-47.55l0-.11c.27-.64.53-1.29.8-1.94l.06-.13.81-2v0l.84-2.08v0c14.48-35.83,23.58-89,23.58-89,.06-.18.28.09.6.74,0-.55,0-.85,0-.85S675.72,748.49,670.06,788.32Z" fill="#D96E27"></path><path d="M670.06,788.32q3.3-3.32,6.5-6.71c45.16-54.71,48.7-112.39,57.87-148.37V619l-2.44.84c.83-1.52,1.65-3,2.44-4.56-.06-.1-3.49,3.38-3.55,3.28A33.65,33.65,0,0,1,725.8,622l-32.55,11.28a220.36,220.36,0,0,1-43.89,3.82c-63-.26-63.24-14.87-113.2-20l-96.49,1.58c-25.69,3.84-37.06,11.81-88,12.85-44.15.9-83.62-10-83.62-10v12.68c14,36.84,4.58,64.43,29,110.49,0-.65,0-1.31-.05-2-4.39-21.71,0-41.57,2.12-49.19.21-1.88.36-2.92.36-2.92v-.07c0-.12,0-.2,0-.2l0,.1c0,.14.11.45.22.9.23-.72.36-1.11.36-1.11s.89,4.91,2.54,12.74c3.93,15.48,11.16,43,19.45,70.08.92,2.43,1.87,4.81,2.84,7.11.07.21.15.44.23.65,27.94,29.88,62.13,55.36,93.14,74.5,3.34,2,6.51,3.87,9.48,5.61a86.4,86.4,0,0,1,2.41-43.06s.07.38.21,1.08c.24-.77.4-1.19.4-1.19s11.43,47.45,34.52,62.83c.57.24,1.15.47,1.73.66l-.44.16.1.06c.58.33,1.18.65,1.77,1a208.45,208.45,0,0,0,21.34,8.53c5.41,1.57,9.84,2.39,12,2.39,4.75,0,32-10.61,48.69-49.07,1.1-3.27,1.63-5.32,1.63-5.32l.28.69c.11-.27.22-.53.32-.8A56,56,0,0,1,560.7,869a526,526,0,0,0,72.06-47.55l0-.11c.27-.64.53-1.29.8-1.94l.06-.13.81-2v0l.84-2.08v0c14.48-35.83,23.58-89,23.58-89,.06-.18.28.09.6.74,0-.55,0-.85,0-.85S675.72,748.49,670.06,788.32Z" fill="#D96E27"></path><path d="M670.06,788.32q3.3-3.32,6.5-6.71c45.16-54.71,48.7-112.39,57.87-148.37V619l-2.44.84c.83-1.52,1.65-3,2.44-4.56-.06-.1-3.49,3.38-3.55,3.28A33.65,33.65,0,0,1,725.8,622l-32.55,11.28a220.36,220.36,0,0,1-43.89,3.82c-63-.26-78.3-19.69-113.2-20s-76.95-1.23-96.49,1.58-37.06,11.81-88,12.85c-44.15.9-83.62-10-83.62-10v12.68c14,36.84,4.58,64.43,29,110.49,0-.65,0-1.31-.05-2-4.39-21.71,0-41.57,2.12-49.19.21-1.88.36-2.92.36-2.92v-.07c0-.12,0-.2,0-.2l0,.1c0,.14.11.45.22.9.23-.72.36-1.11.36-1.11s.89,4.91,2.54,12.74c3.93,15.48,11.16,43,19.45,70.08.92,2.43,1.87,4.81,2.84,7.11.07.21.15.44.23.65,27.94,29.88,62.13,55.36,93.14,74.5,3.34,2,6.51,3.87,9.48,5.61a86.4,86.4,0,0,1,2.41-43.06s.07.38.21,1.08c.24-.77.4-1.19.4-1.19s11.43,47.45,34.52,62.83c.57.24,1.15.47,1.73.66l-.44.16.1.06c.58.33,1.18.65,1.77,1a208.45,208.45,0,0,0,21.34,8.53c5.41,1.57,9.84,2.39,12,2.39,4.75,0,32-10.61,48.69-49.07,1.1-3.27,1.63-5.32,1.63-5.32l.28.69c.11-.27.22-.53.32-.8A56,56,0,0,1,560.7,869a526,526,0,0,0,72.06-47.55l0-.11c.27-.64.53-1.29.8-1.94l.06-.13.81-2v0l.84-2.08v0c14.48-35.83,23.58-89,23.58-89,.06-.18.28.09.6.74,0-.55,0-.85,0-.85S675.72,748.49,670.06,788.32Z" fill="#D96E27"></path><path d="M343.5,706.91a23.12,23.12,0,0,0,13.79,5.8C343,701.34,337.78,690.32,336,685.36A271.66,271.66,0,0,1,326,630.81a329.37,329.37,0,0,1-57.87-9.33v12.68c14,36.84,4.58,64.43,29,110.49,0-.65,0-1.31-.05-2-4.39-21.71,0-41.57,2.12-49.19.21-1.88.36-2.92.36-2.92v-.07c0-.12,0-.2,0-.2l0,.1c0,.14.11.45.22.9.23-.72.36-1.11.36-1.11s.89,4.91,2.54,12.74c3.93,15.48,11.16,43,19.45,70.08.92,2.43,1.87,4.81,2.84,7.11.07.21.15.44.23.65,27.94,29.88,62.13,55.36,93.14,74.5,3.34,2,6.51,3.87,9.48,5.61a86.4,86.4,0,0,1,2.41-43.06s.07.38.21,1.08c.24-.77.4-1.19.4-1.19s11.43,47.45,34.52,62.83c.57.24,1.15.47,1.73.66l-.44.16.1.06c.58.33,1.18.65,1.77,1a208.45,208.45,0,0,0,21.34,8.53c5.41,1.57,9.84,2.39,12,2.39,3.53,0,19.51-5.88,34.33-24.72C466.94,846.06,380.78,800,343.5,706.91Z" fill="#C65C22"></path><path d="M433.87,816.78s9.49,9,29.29,4.09c-1.47,3.55-5.93,5.4-5.93,5.4s6.17,8.13,19.06,7.75c0,0-7.73,4.8-15.53,1.65A169.67,169.67,0,0,0,442.41,834l-13.51-9.38Z" fill="#C65C22"></path><path d="M351.7,631.52q-2.64.48-5.28.84c-.89.11-1.77.25-2.65.35l-2.66.24-5.32.38c-1.78.08-3.56.09-5.33.14-3.56.07-7.11-.07-10.67-.2s-7.1-.37-10.64-.71-7.07-.7-10.61-1.1-7.05-1-10.56-1.56a196.89,196.89,0,0,1-21-4.57l-3.85-1.08,2.1-7.57,3.88.94c6.61,1.61,13.47,3.13,20.27,4.49s13.68,2.64,20.57,3.72c3.44.59,6.89,1,10.35,1.56s6.92,1,10.39,1.31C337.67,629.65,344.64,630.36,351.7,631.52Z" fill="#592d3d"></path><path d="M669.31,789.07c10.26-10.26,9.29-9.63,17.79-20.94-1.5-34.48-30-53.71-30-53.71L659,726.08c.84.16,7.91,18.47,7.56,46.08Z" fill="#C65C22"></path><path d="M575.36,859.87c-5.72-24.9-22.42-29.15-22.42-29.15l3.21,19.45a96.48,96.48,0,0,1,3.9,19.14c5-2.72,10.16-5.66,15.45-8.78Z" fill="#C65C22"></path><path d="M340.09,735.62a90.52,90.52,0,0,0,6.59,20.14A121.79,121.79,0,0,0,357,773.89l3.09,4.18c.53.68,1,1.42,1.56,2.07l1.66,2c1.13,1.31,2.19,2.68,3.35,4l3.56,3.78c.6.62,1.16,1.28,1.77,1.89l1.9,1.78,3.77,3.58c2.58,2.32,5.33,4.45,7.94,6.75l-6.28,3.32-.06-4c.05-1.32.07-2.64.2-4s.23-2.65.46-4c.11-.66.18-1.32.32-2l.43-2a43.84,43.84,0,0,1,2.52-7.67A35,35,0,0,1,385,780c.34-.6.73-1.18,1.13-1.77.21-.29.4-.57.64-.87s.42-.54.78-.95l4.46-5.06.56,6.55c.1,1.09.3,2.4.53,3.61s.51,2.46.84,3.68a48,48,0,0,0,2.51,7.14,36.29,36.29,0,0,0,3.9,6.55,29,29,0,0,0,5.62,5.42,23.79,23.79,0,0,1-7-4.07,31.32,31.32,0,0,1-5.54-6.17,43.85,43.85,0,0,1-4-7.32c-.54-1.28-1-2.58-1.46-3.91a34,34,0,0,1-1.11-4.16l5,1.49c0,.08-.22.35-.34.55s-.26.46-.39.69c-.25.48-.5,1-.73,1.48a33.23,33.23,0,0,0-1.24,3.15,44.39,44.39,0,0,0-1.62,6.69,55.25,55.25,0,0,0-.65,6.94c-.06,1.16,0,2.34,0,3.51l.16,3.53.4,8.64-6.68-5.32c-1.44-1.15-2.87-2.29-4.29-3.46l-2.14-1.75c-.7-.59-1.44-1.14-2.09-1.79l-4-3.83-2-1.91c-.64-.67-1.25-1.36-1.86-2.05l-3.67-4.15c-1.21-1.39-2.26-2.92-3.38-4.39a105.25,105.25,0,0,1-6.17-9.19,91.82,91.82,0,0,1-8.63-20.3C340.61,750.19,339.43,742.84,340.09,735.62Z" fill="#592d3d"></path><path d="M638.78,724.34A5.35,5.35,0,0,1,640,726a16.7,16.7,0,0,1,.84,1.94A33.87,33.87,0,0,1,642,732a58.47,58.47,0,0,1,1.08,8.32,94.26,94.26,0,0,1-.54,16.71,109.35,109.35,0,0,1-9,32.28A90.58,90.58,0,0,1,614.3,817a70.11,70.11,0,0,1-28.51,17,111.55,111.55,0,0,0,23.91-21.31A118.63,118.63,0,0,0,626.25,786a157.47,157.47,0,0,0,10.09-30,151.49,151.49,0,0,0,2.81-15.76c.32-2.65.54-5.32.63-8a33.51,33.51,0,0,0-.08-4,14.64,14.64,0,0,0-.26-2A5.74,5.74,0,0,0,638.78,724.34Z" fill="#ffffff"></path><path d="M262.51,621.57c22.24,43.9,7.22,72.38,35.18,124.3-7-29,2.43-55.68,2.43-55.68S310,744.78,325,780.12c7.28,23.46,69.85,61.4,103.55,81.17a86.33,86.33,0,0,1,2.32-43.58s11.89,49.36,35.91,63.71c13.43,7.58,30.15,11.89,35.13,11.89s34.53-11.58,50.92-54.5a56,56,0,0,1,7.9,30.68c22.18-12,53.39-25.68,72.45-47.65C659.52,787.15,659.52,726,659.52,726S676,748.85,669.93,789.3c61.76-68.3,54.34-143.14,71.42-175.57" fill="none" stroke="#592d3d" stroke-miterlimit="10" stroke-width="12px"></path><path d="M734.38,616.77a3.8,3.8,0,0,0,1.16,1.29,4,4,0,0,0,2.15.7,3.81,3.81,0,0,0,1.68-.34h0l-.09,0-.2.11-.48.24-1,.51-2,1q-2,1-4,2c-2.69,1.32-5.41,2.57-8.13,3.81s-5.5,2.41-8.27,3.57-5.6,2.23-8.47,3.26c-1.44.51-2.89,1-4.39,1.43a39.36,39.36,0,0,1-4.75,1.15c-.47.08-.81.11-1.18.16l-1.12.13c-.74.09-1.48.16-2.23.23-1.49.14-3,.3-4.49.4a85.55,85.55,0,0,1-18.09-.43c5.86-1.58,11.62-2.89,17.37-4.29l8.59-2a35.39,35.39,0,0,0,3.81-1.36c1.31-.52,2.63-1.14,4-1.72,2.65-1.19,5.29-2.47,7.93-3.77s5.29-2.61,7.93-3.93l7.94-4,4-2,2-1,1-.48.53-.25.3-.13.16-.08.05,0a4.11,4.11,0,0,1,5.19,1.57l2.13,3.38-7.06,4.19Z" fill="#592d3d"></path><path d="M703.51,506.11V519a49.59,49.59,0,0,1-1.94,25.32,45.67,45.67,0,0,1-3.51,7.65c-3.35,8.71-12.35,15.71-21.35,18.71-14,4-31,2-42-9-14-15-12-37-12.45-55.62" fill="none" stroke="#592d3d" stroke-linecap="round" stroke-miterlimit="10" stroke-width="12px"></path><path d="M376.69,505.7c2.34,26.61-1.66,63.61-36.13,67.17a45.89,45.89,0,0,1-8.12,0A43.6,43.6,0,0,1,310,564.31c-18-15-14-39-13.95-58.62" fill="none" stroke="#592d3d" stroke-linecap="round" stroke-miterlimit="10" stroke-width="12px"></path><line x1="446.66" y1="606.02" x2="542.53" y2="606.02" fill="none" stroke="#592d3d" stroke-linecap="round" stroke-miterlimit="10" stroke-width="12px"></line><path d="M603.1,452.29a320.74,320.74,0,0,1,33.51-6.66L634,446a150.31,150.31,0,0,1,39.75-.48l-2.66-.36c3.28.45,6.54,1,9.82,1.41l-2.66-.35a222.52,222.52,0,0,1,29.48,6.1c5,1.4,11.11-1.72,12.3-7a10.19,10.19,0,0,0-7-12.3,239.34,239.34,0,0,0-34.58-6.78l2.65.36a142.93,142.93,0,0,0-33.43-1.95,236.67,236.67,0,0,0-33.1,4.54c-5.61,1.14-11.19,2.44-16.76,3.81-5.08,1.25-8.61,7.26-7,12.3a10.21,10.21,0,0,0,12.3,7Z" fill="#592d3d"></path><path d="M261.26,502.22l14.13-1.48,33.67-3.52L350,492.93l35.18-3.69c5.72-.59,11.44-1.17,17.16-1.79l.24,0c2.73-.28,5.07-.92,7.07-2.93a10,10,0,0,0,0-14.14c-1.83-1.69-4.48-3.2-7.07-2.93l-14.13,1.48-33.67,3.53-41,4.29-35.18,3.68c-5.72.6-11.44,1.18-17.16,1.8l-.24,0c-2.73.29-5.07.93-7.07,2.93a10,10,0,0,0,0,14.15c1.83,1.68,4.48,3.2,7.07,2.92Z" fill="#592d3d"></path></g></svg>