<svg xmlns="http://www.w3.org/2000/svg" viewBox="0 0 1000 990"><mask id="mask"><path d="M1000,0H0V718.31H179.2c38.38,142.38,167.45,247.1,320.8,247.1s282.42-104.72,320.8-247.1H1000Z" fill="white"></path></mask><g mask="url(#mask)"><circle cx="500" cy="630.1601" r="332.441995" fill="#85c5e5"></circle><path d="M610,758.72c90.76,0,72,114.24,72.87,241.28H610Z" fill="#754437"></path><path d="M632.74,831.87,610,870l11.38,130h31.76C653.91,819.73,632.74,831.87,632.74,831.87Z" fill="#6B3D34"></path><path d="M233.25,500c0-147.32,119.43-266.75,266.75-266.75S766.75,352.68,766.75,500A266.22,266.22,0,0,1,668.1,707.12q-8.21,6.68-16.94,12.69C591,758,515,758,446.39,751.89c-6.66-1-13.3-2.26-19.89-3.71-26.33-5.8-51.82-14.75-75.37-27.8Q342.4,715,334.2,708.76a199.59,199.59,0,0,1-15.8-13.38q-7.14-6.63-13.79-13.78A265.86,265.86,0,0,1,233.25,500Z" fill="#754437"></path><path d="M269.61,634.48c.7,1.2,1.39,2.4,2.11,3.58.43.72.88,1.42,1.33,2.14.66,1.07,1.32,2.14,2,3.19.48.76,1,1.5,1.46,2.24.66,1,1.32,2,2,3,.51.76,1,1.52,1.56,2.28.66,1,1.32,1.92,2,2.88.54.77,1.1,1.53,1.65,2.3s1.34,1.85,2,2.77,1.15,1.53,1.73,2.29,1.37,1.8,2.07,2.7,1.19,1.51,1.79,2.26,1.41,1.76,2.12,2.63,1.23,1.49,1.85,2.23,1.44,1.72,2.17,2.57,1.27,1.47,1.91,2.2l2.22,2.5c.65.73,1.31,1.44,2,2.16.86.94,1.73,1.87,2.6,2.79l1.21,1.28c1.29,1.34,2.59,2.68,3.91,4l.26.27c1.29,1.28,2.6,2.55,3.91,3.81l1.58,1.5c.95.89,1.9,1.78,2.86,2.66l1.16,1.06c1,.94,2.09,1.86,3.14,2.78q4.9,4.27,10,8.19,8.19,6.24,16.93,11.62c23.55,13,49,22,75.37,27.8,6.59,1.45,13.23,2.7,19.89,3.71,42.1,3.75,87,5.18,129.28-3.08C508.45,729,185.59,612.74,388.8,257.48h0c-2.72,1.25-5.4,2.54-8.06,3.88l-.59.29c-1.22.61-2.44,1.24-3.65,1.88l-1,.53c-3.76,2-7.48,4.07-11.13,6.23l-.9.53c-1.16.69-2.31,1.39-3.46,2.1l-.87.54q-5.36,3.35-10.55,6.93l-1.08.75c-1.09.76-2.16,1.52-3.23,2.29l-.66.47q-3.27,2.39-6.46,4.84l-.62.48c-1,.78-2,1.58-3,2.39l-1.17.94c-1,.81-2,1.62-3,2.45l0,0c-2.11,1.75-4.19,3.55-6.24,5.37l-1.14,1-2.69,2.45L318,305q-4.28,4-8.37,8.17l-1.38,1.41c-.79.82-1.58,1.64-2.36,2.47-.46.49-.92,1-1.37,1.48q-2.06,2.2-4.06,4.46c-.45.51-.91,1-1.36,1.54-.71.81-1.41,1.63-2.11,2.45l-1.51,1.79c-.68.81-1.36,1.62-2,2.44-.54.66-1.08,1.33-1.61,2-1.07,1.33-2.12,2.66-3.16,4-.54.7-1.08,1.4-1.61,2.11s-1.2,1.59-1.79,2.4-1.07,1.45-1.59,2.18-1.13,1.55-1.68,2.33q-1.42,2-2.8,4.05c-.5.73-1,1.48-1.49,2.22s-1.1,1.66-1.64,2.5l-1.49,2.31-1.68,2.71c-.43.69-.86,1.38-1.28,2.07-.89,1.46-1.75,2.93-2.61,4.4l-1.22,2.16c-.54.95-1.08,1.91-1.61,2.87-.4.73-.8,1.46-1.19,2.19-.64,1.19-1.27,2.39-1.9,3.59l-1.2,2.34c-.64,1.28-1.28,2.55-1.91,3.84-.33.69-.67,1.39-1,2.09-.52,1.09-1,2.19-1.53,3.29-.31.66-.61,1.32-.91,2q-1.11,2.47-2.17,5c-.22.52-.43,1.05-.65,1.57-.53,1.27-1.05,2.54-1.56,3.82-.27.67-.53,1.34-.79,2-.5,1.26-1,2.53-1.45,3.8-.21.55-.42,1.1-.62,1.65q-.94,2.63-1.85,5.26l-.56,1.7q-.66,2-1.29,4l-.6,1.91c-.47,1.54-.93,3.08-1.37,4.63-.1.33-.2.66-.29,1q-.78,2.76-1.5,5.54c-.16.59-.3,1.19-.45,1.78-.35,1.39-.69,2.78-1,4.18l-.42,1.75c-.43,1.9-.85,3.8-1.24,5.71l-.15.77q-.51,2.55-1,5.1c-.11.61-.21,1.21-.32,1.82-.26,1.49-.51,3-.74,4.5-.08.51-.17,1-.24,1.52-.3,1.95-.57,3.91-.83,5.88l-.15,1.3c-.2,1.59-.38,3.19-.55,4.79-.06.6-.13,1.2-.19,1.81-.16,1.68-.31,3.37-.45,5.06,0,.35-.06.69-.08,1q-.22,3-.39,6.05c0,.53,0,1.07-.07,1.6q-.1,2.36-.18,4.71c0,.59,0,1.18,0,1.77,0,2.05-.08,4.11-.08,6.17,0,0,0,.07,0,.1,0,2.22,0,4.42.08,6.62,0,.76.06,1.52.08,2.28.05,1.47.1,2.94.17,4.41,0,.89.11,1.77.16,2.66.08,1.33.15,2.66.25,4,.07,1,.16,1.89.24,2.83.11,1.26.21,2.52.34,3.77.09,1,.21,1.94.31,2.91.14,1.21.27,2.43.42,3.64.12,1,.26,2,.39,2.95.16,1.18.32,2.37.5,3.55.15,1,.31,2,.47,3,.18,1.16.37,2.33.57,3.49.18,1,.36,2,.55,3,.21,1.15.43,2.3.65,3.44s.41,2,.62,3c.24,1.14.48,2.27.74,3.4s.44,2,.68,2.93c.26,1.13.54,2.25.82,3.36s.49,1.95.74,2.91c.3,1.12.6,2.23.91,3.34.26,1,.53,1.92.81,2.87.32,1.11.65,2.21,1,3.31s.58,1.89.88,2.84.7,2.19,1.06,3.28.62,1.87.94,2.8c.38,1.09.76,2.18,1.15,3.27.33.91.65,1.83,1,2.74l1.24,3.27c.35.89.69,1.79,1,2.68.44,1.09.89,2.19,1.34,3.28.36.86.71,1.73,1.08,2.59.47,1.12,1,2.22,1.45,3.33.37.82.73,1.65,1.1,2.47.52,1.16,1.07,2.3,1.6,3.44l1.08,2.3c.61,1.26,1.24,2.5,1.87,3.75.32.63.62,1.27.95,1.9q2.88,5.61,6,11.07C268.88,633.26,269.25,633.87,269.61,634.48Z" fill="#6B3D34"></path><path d="M233.25,500c0-147.32,119.43-266.75,266.75-266.75S766.75,352.68,766.75,500A266.22,266.22,0,0,1,668.1,707.12q-8.21,6.68-16.94,12.69C591,758,515,758,446.39,751.89c-6.66-1-13.3-2.26-19.89-3.71-26.33-5.8-51.82-14.75-75.37-27.8Q342.4,715,334.2,708.76a199.59,199.59,0,0,1-15.8-13.38q-7.14-6.63-13.79-13.78A265.86,265.86,0,0,1,233.25,500Z" fill="none" stroke="#592d3d" stroke-miterlimit="10" stroke-width="12px"></path><path d="M386.12,758.72c-90.77,0-72,114.24-72.87,241.28h72.87Z" fill="#754437"></path><path d="M367.23,831.87,390,870l-11.39,130H346.88C346.07,819.73,367.23,831.87,367.23,831.87Z" fill="#6B3D34"></path><path d="M619.47,1070H380.53a13.28,13.28,0,0,1-13.27-13.28V772a13.28,13.28,0,0,1,13.27-13.28H613.76c13.09,0,19,7.66,19,19.88v278.08A13.28,13.28,0,0,1,619.47,1070Z" fill="#754437"></path><path d="M629.05,766.62a19.33,19.33,0,0,1-2.51-4,17.25,17.25,0,0,0-8.28-3.51,28.88,28.88,0,0,0-4.5-.34H380.53A13.28,13.28,0,0,0,367.26,772c29,10.42,83.29,16.24,132.74,16.24C563.06,788.24,604.38,778.89,629.05,766.62Z" fill="#6B3D34"></path><path d="M610,758.72c90.76,0,72,114.24,72.87,241.28H632.74" fill="none" stroke="#592d3d" stroke-linecap="square" stroke-miterlimit="10" stroke-width="12px"></path><path d="M386.12,758.72c-90.77,0-72,114.24-72.87,241.28h50.07" fill="none" stroke="#592d3d" stroke-linecap="square" stroke-miterlimit="10" stroke-width="12px"></path><path d="M380.53,758.82l233.23-.1" fill="none" stroke="#592d3d" stroke-miterlimit="10" stroke-width="12px"></path><path d="M380.53,1070H497.15C388,1070,396.24,838.82,367.26,838.82v217.86A13.28,13.28,0,0,0,380.53,1070Z" fill="#6B3D34"></path><path d="M361.26,860.85c-.19-3.67-.11-7.34.05-11s.47-7.35.86-11c.2-1.84.4-3.67.65-5.51s.49-3.67.85-5.51a44.18,44.18,0,0,1,3.59-11,44.18,44.18,0,0,1,3.59,11c.36,1.84.62,3.67.85,5.51s.45,3.67.65,5.51c.38,3.67.68,7.34.85,11s.25,7.34.06,11Z" fill="#592d3d"></path><path d="M632.74,870v8c.26,34,.26,69,0,102.75,0,2.87,0,5.72,0,8.53v67.41A13.28,13.28,0,0,1,619.47,1070H380.53a13.28,13.28,0,0,1-13.27-13.28V998.52c0-2.51,0-5.07,0-7.65-.25-34.87-.25-69.87,0-105.3V860.85" fill="none" stroke="#592d3d" stroke-miterlimit="10" stroke-width="12px"></path><path d="M626.74,870c-.19-4.17-.1-8.35.06-12.53s.47-8.35.85-12.53c.2-2.09.41-4.18.65-6.27s.49-4.17.85-6.26a55.09,55.09,0,0,1,3.59-12.53,55.09,55.09,0,0,1,3.59,12.53c.36,2.09.62,4.18.85,6.26s.45,4.18.65,6.27c.38,4.18.69,8.35.85,12.53s.25,8.36.06,12.53Z" fill="#592d3d"></path><path d="M502.07,878.86A69.31,69.31,0,1,1,371,847.39" fill="none" stroke="#592d3d" stroke-miterlimit="10" stroke-width="12px"></path><path d="M371,847.39a69.68,69.68,0,0,1,15-19.67" fill="#754437"></path><path d="M365.65,844.66a27,27,0,0,1,3.38-5.84,37.22,37.22,0,0,1,4.53-5c.84-.76,1.69-1.5,2.58-2.19a21.1,21.1,0,0,1,2.81-1.92,15,15,0,0,1,7-2,25,25,0,0,1-1.75,6.81c-.39,1-.83,1.88-1.29,2.77l-1.3,2.67c-.85,1.76-1.69,3.49-2.55,5.19a54.51,54.51,0,0,1-2.76,5Z" fill="#592d3d"></path><path d="M489.33,838.82a69,69,0,0,1,12.74,40" fill="#754437"></path><path d="M489.33,838.82a26.55,26.55,0,0,1,8.69,7.55,38.8,38.8,0,0,1,3.1,4.79c.93,1.67,1.77,3.39,2.55,5.15a55.12,55.12,0,0,1,3.46,11,48,48,0,0,1,.94,11.53h-12c-.19-3.25-.36-6.48-.7-9.73s-.77-6.48-1.4-9.74l-.5-2.44-.58-2.45c-.42-1.63-.87-3.26-1.29-4.93A104.17,104.17,0,0,1,489.33,838.82Z" fill="#592d3d"></path><path d="M641.65,878.86a69.14,69.14,0,0,0-21.94-50.6" fill="#754437"></path><path d="M635.65,878.86A107,107,0,0,0,634.39,866a81.92,81.92,0,0,0-3.12-12.67c-.34-1-.74-2.07-1.11-3.11s-.84-2.05-1.25-3.09-.94-2-1.38-3.05l-1.46-3c-2-4.1-4.17-8.19-6.36-12.75a35.76,35.76,0,0,1,12.22,8.61c.83.94,1.7,1.86,2.47,2.85s1.54,2,2.25,3,1.43,2.09,2.07,3.18,1.31,2.18,1.88,3.32A62.19,62.19,0,0,1,646,863.58a56.6,56.6,0,0,1,1.62,15.28Z" fill="#592d3d"></path><path d="M503,878.86a69.31,69.31,0,1,0,138.61,0" fill="none" stroke="#592d3d" stroke-miterlimit="10" stroke-width="12px"></path><path d="M515.77,838.82a69,69,0,0,0-12.73,40" fill="#754437"></path><path d="M515.77,838.82a104.17,104.17,0,0,1-2.27,10.75c-.42,1.67-.87,3.3-1.29,4.93l-.57,2.45-.5,2.44c-.63,3.26-1.09,6.5-1.41,9.74s-.5,6.48-.69,9.73H497a47,47,0,0,1,.94-11.53,54.48,54.48,0,0,1,3.46-11c.77-1.76,1.61-3.48,2.54-5.15a40,40,0,0,1,3.1-4.79A26.66,26.66,0,0,1,515.77,838.82Z" fill="#592d3d"></path><line x1="383.44" y1="837.55" x2="383.44" y2="758.72" fill="none" stroke="#592d3d" stroke-miterlimit="10" stroke-width="12px"></line><line x1="616.46" y1="837.55" x2="616.46" y2="758.72" fill="none" stroke="#592d3d" stroke-miterlimit="10" stroke-width="12px"></line><path d="M470.5,897.78h53.9v19.7c-17.74-6.05-35.71-5.9-53.9,0Z" fill="#633749" stroke="#592d3d" stroke-miterlimit="10" stroke-width="12px"></path><path d="M638.1,878.86a69.06,69.06,0,0,0-18.63-47.28c-4.22-4.52-44.27,6.19-67.81,27.26-23.11,20.69-43.23,54.49-40.35,58.75A69.31,69.31,0,0,0,638.1,878.86Z" fill="#633749" stroke="#592d3d" stroke-miterlimit="10" stroke-width="12px"></path><path d="M598.11,848.39c-6.12,3.67-12.15,7.18-18,11a154.79,154.79,0,0,0-16.53,12.18c-5.15,4.46-10.11,9.32-15,14.26s-9.69,10-14.75,15.07a100,100,0,0,1,11.18-18.17A106.06,106.06,0,0,1,559.72,867a84.36,84.36,0,0,1,18.14-11.73A83.45,83.45,0,0,1,598.11,848.39Z" fill="#ffffff"></path><path d="M361.9,878.86a69.06,69.06,0,0,1,18.63-47.28c4.22-4.52,44.27,6.19,67.81,27.26,23.11,20.69,43.23,54.49,40.35,58.75A69.31,69.31,0,0,1,361.9,878.86Z" fill="#633749" stroke="#592d3d" stroke-miterlimit="10" stroke-width="12px"></path><path d="M455.75,938.92a85.36,85.36,0,0,1-85.36-85.36,86.38,86.38,0,0,1,.44-8.71,69.31,69.31,0,0,0,96.31,93.29A85.67,85.67,0,0,1,455.75,938.92Z" fill="#5E3244"></path><path d="M361.9,878.86a69.06,69.06,0,0,1,18.63-47.28c4.22-4.52,44.27,6.19,67.81,27.26,23.11,20.69,43.23,54.49,40.35,58.75A69.31,69.31,0,0,1,361.9,878.86Z" fill="none" stroke="#592d3d" stroke-miterlimit="10" stroke-width="12px"></path><path d="M401.89,848.39a83.45,83.45,0,0,1,20.25,6.87A84.36,84.36,0,0,1,440.28,867a106.06,106.06,0,0,1,14.65,15.71,100,100,0,0,1,11.18,18.17c-5.06-5-9.84-10.13-14.75-15.07s-9.84-9.8-15-14.26a154.79,154.79,0,0,0-16.53-12.18C414,855.57,408,852.06,401.89,848.39Z" fill="#ffffff"></path><path d="M680.7,905.78c.2-37.1-1.21-70.07-7.74-95.39-10.08-25.35-28.18-40.47-60.12-40.47l22.85,134.47S658.2,914.68,680.7,905.78Z" fill="#6B3D34"></path><path d="M689.3,895.23a20.28,20.28,0,0,1-3.69,2.42" fill="none" stroke="#592d3d" stroke-linecap="square" stroke-miterlimit="10" stroke-width="12px"></path><path d="M329,809.32c-6.82,25.57-8,59.13-7.74,97,19.9,8.55,50.43-2.15,50.43-2.15L389,771.89C358.14,771.89,339.74,785.79,329,809.32Z" fill="#6B3D34"></path><path d="M616.66,758.16l-38.44.1c0,53.72-75.33,111.14-75.33,111.14s-80.8-60.58-80.8-111.14l-38.66-.1a13.28,13.28,0,0,0-13.28,13.27v284.69a13.28,13.28,0,0,0,13.28,13.27H622.36a13.27,13.27,0,0,0,13.27-13.27V778C635.63,765.82,629.75,758.16,616.66,758.16Z" fill="#633749"></path><path d="M612.84,758.16c63.54,0,73.4,56,73.9,133.16-18.59,11.62-48.91,1.32-48.91,1.32Z" fill="#633749"></path><path d="M635.63,831.31,612.84,869.4l11.39,130h11.6V893.78l17.28,2.89C647.49,824.5,635.63,831.31,635.63,831.31Z" fill="#5E3244"></path><path d="M389,758.16c-61.78,0-75.82,53.79-76.85,127.66,19,19.85,57.95,4.58,57.95,4.58Z" fill="#633749"></path><path d="M370.12,831.31V890.4l-17.31,4.3C358.48,824.63,370.12,831.31,370.12,831.31Z" fill="#5E3244"></path><path d="M612.84,758.16c67.42,0,78.45,56.28,78.9,133.78-26.2,12.42-53.91.7-53.91.7" fill="none" stroke="#592d3d" stroke-linecap="square" stroke-miterlimit="10" stroke-width="12px"></path><path d="M389,758.16c-66.79,0-80.08,54.69-80.75,130.71,20.59,14.79,61.85,1.53,61.85,1.53" fill="none" stroke="#592d3d" stroke-linecap="square" stroke-miterlimit="10" stroke-width="12px"></path><path d="M383.43,1069.39H500c-109.19,0-100.91-231.14-129.89-231.14v217.87A13.28,13.28,0,0,0,383.43,1069.39Z" fill="#5E3244"></path><path d="M364.15,860.29c-.19-3.67-.11-7.35.06-11s.47-7.34.85-11c.2-1.83.41-3.67.65-5.51s.49-3.67.85-5.5a44.05,44.05,0,0,1,3.59-11,44.05,44.05,0,0,1,3.59,11c.36,1.83.62,3.67.85,5.5s.45,3.68.65,5.51q.58,5.52.86,11c.16,3.67.24,7.35,0,11Z" fill="#592d3d"></path><path d="M635.63,869.4v8c.26,34,.26,69,0,102.76,0,2.87,0,5.72,0,8.53v67.41a13.27,13.27,0,0,1-13.27,13.27H383.43a13.28,13.28,0,0,1-13.28-13.27V990.3c-.26-34.86-.26-69.86,0-105.3V860.29" fill="none" stroke="#592d3d" stroke-miterlimit="10" stroke-width="12px"></path><path d="M629.63,869.4c-.19-4.18-.1-8.36.06-12.53s.47-8.36.86-12.53c.2-2.09.4-4.18.64-6.27s.49-4.18.86-6.27a54.83,54.83,0,0,1,3.58-12.53,54.37,54.37,0,0,1,3.59,12.53c.36,2.09.63,4.18.85,6.27s.45,4.18.65,6.27c.39,4.17.69,8.35.85,12.53s.26,8.35.06,12.53Z" fill="#592d3d"></path><path d="M383.43,758.26l233.23-.1" fill="none" stroke="#592d3d" stroke-miterlimit="10" stroke-width="12px"></path><path d="M310.72,891.94a24.84,24.84,0,0,0,3.68,2.76" fill="none" stroke="#592d3d" stroke-linecap="square" stroke-miterlimit="10" stroke-width="12px"></path><path d="M677.59,882.13a20.25,20.25,0,0,1-6.75,2.52,34.91,34.91,0,0,1-7.21.64,39.94,39.94,0,0,1-7.17-.78c-1.18-.22-2.34-.57-3.49-.87s-2.28-.78-3.38-1.24c1.21,0,2.39.17,3.56.27l3.52.29c1.17,0,2.33.2,3.5.21s2.33.11,3.49.12c2.32.05,4.64,0,7-.18A50.81,50.81,0,0,0,677.59,882.13Z" fill="#592d3d"></path><path d="M578.22,758.26c0,53.72-75.33,111.14-75.33,111.14s-80.8-60.58-80.8-111.14" fill="none" stroke="#592d3d" stroke-miterlimit="10" stroke-width="12px"></path><g transform="translate(0 30)"><path d="M566.88,917.83c0-8.86-11.1-17.26-28.11-22.47,3.93-17.34,2.18-31.13-5.51-35.55a9.56,9.56,0,0,0-6.08-1.56c-8,.13-17.31,5.35-27.23,14.62C490,863.65,479,858.2,472.71,858.36c-3.16.09-4.37.52-6.16,1.56-7.67,4.41-9.38,18.18-5.43,35.47-17,5.23-28,13.61-28,22.44s11.1,17.26,28.11,22.47c-3.93,17.34-2.18,31.13,5.51,35.55a11.93,11.93,0,0,0,6.13,1.53c7.5,0,17.31-5.35,27.24-14.62,9.92,9.22,19.74,14.51,27.24,14.51a12.11,12.11,0,0,0,6.16-1.53c7.66-4.42,9.38-18.19,5.42-35.47C555.84,935.06,566.88,926.66,566.88,917.83Zm-39.72-53.49v0a6.32,6.32,0,0,1,3.1.71c3.71,2.13,5.32,10.23,4.07,20.64-.3,2.56-.79,5.26-1.39,8a133,133,0,0,0-17.32-3,132.78,132.78,0,0,0-11.34-13.63C513.16,868.87,521.49,864.35,527.16,864.34Zm-51.32,67.45q1.92,3.27,3.93,6.38c-3.87-.57-7.61-1.28-11.18-2.15,1-3.52,2.26-7.15,3.68-10.77C473.39,927.43,474.56,929.61,475.84,931.79Zm-7.33-32.15c3.57-.84,7.33-1.58,11.23-2.15-1.33,2.1-2.67,4.25-3.92,6.46s-2.43,4.36-3.55,6.54A114.8,114.8,0,0,1,468.51,899.64Zm6.95,18.27c1.69-3.65,3.6-7.31,5.65-10.88s4.3-7.17,6.57-10.41c4.06-.36,8.18-.55,12.32-.55s8.23.19,12.27.52c2.26,3.24,4.47,6.71,6.6,10.36s4,7.2,5.67,10.85c-1.72,3.66-3.6,7.31-5.65,10.88s-4.3,7.17-6.57,10.42c-4.06.35-8.18.54-12.32.54s-8.23-.19-12.27-.52c-2.26-3.24-4.47-6.7-6.6-10.36S477.18,921.56,475.46,917.91Zm48.7,13.8c1.25-2.18,2.42-4.39,3.54-6.57A114.8,114.8,0,0,1,531.46,936c-3.57.87-7.33,1.61-11.23,2.18C521.57,936.07,522.9,933.92,524.16,931.71Zm0-27.84c-1.25-2.18-2.59-4.31-3.93-6.38q5.82.85,11.18,2.15c-1,3.52-2.26,7.15-3.68,10.77C526.58,908.23,525.41,906.05,524.13,903.87ZM507.5,890.15c-2.46-.1-5-.19-7.5-.19s-5.1.06-7.58.19a105.71,105.71,0,0,1,7.5-8.72A114.37,114.37,0,0,1,507.5,890.15Zm-37.93-25a6.08,6.08,0,0,1,3.14-.71v0c5.64,0,14,4.5,22.9,12.71a129.42,129.42,0,0,0-11.26,13.6,129.07,129.07,0,0,0-17.34,3c-.63-2.72-1.09-5.37-1.42-7.9C464.31,875.43,465.89,867.33,469.57,865.18Zm-6.87,69.23c-2.7-.85-5.26-1.78-7.63-2.78-9.66-4.12-15.9-9.52-15.9-13.8s6.24-9.71,15.9-13.8c2.34-1,4.9-1.91,7.55-2.75a130.83,130.83,0,0,0,6.13,16.6A130.68,130.68,0,0,0,462.7,934.41Zm10.12,36.91a6.43,6.43,0,0,1-3.08-.73c-3.71-2.13-5.32-10.23-4.07-20.64.3-2.57.79-5.26,1.39-8a131.33,131.33,0,0,0,17.32,3,131.87,131.87,0,0,0,11.34,13.64C486.83,966.8,478.49,971.32,472.82,971.32Zm27.23-17.09a114.59,114.59,0,0,1-7.58-8.73c2.46.11,5,.19,7.5.19s5.1-.05,7.58-.19A105.91,105.91,0,0,1,500.05,954.23Zm30.38,16.25a6.08,6.08,0,0,1-3.14.71c-5.64,0-14-4.5-22.9-12.71a129.42,129.42,0,0,0,11.26-13.6,129.07,129.07,0,0,0,17.34-3,75.63,75.63,0,0,1,1.42,7.93C535.69,960.23,534.11,968.32,530.43,970.48Zm14.48-38.85c-2.35,1-4.91,1.9-7.56,2.75a131.52,131.52,0,0,0-6.13-16.61,129,129,0,0,0,6-16.52c2.7.85,5.26,1.77,7.66,2.78,9.66,4.12,15.9,9.52,15.9,13.8S554.56,927.54,544.91,931.63Z" stroke="#ffffff" stroke-width="16px"></path><circle cx="499.97" cy="917.83" r="12.46" stroke="#ffffff" stroke-width="24px"></circle><path d="M566.88,917.83c0-8.86-11.1-17.26-28.11-22.47,3.93-17.34,2.18-31.13-5.51-35.55a9.56,9.56,0,0,0-6.08-1.56c-8,.13-17.31,5.35-27.23,14.62C490,863.65,479,858.2,472.71,858.36c-3.16.09-4.37.52-6.16,1.56-7.67,4.41-9.38,18.18-5.43,35.47-17,5.23-28,13.61-28,22.44s11.1,17.26,28.11,22.47c-3.93,17.34-2.18,31.13,5.51,35.55a11.93,11.93,0,0,0,6.13,1.53c7.5,0,17.31-5.35,27.24-14.62,9.92,9.22,19.74,14.51,27.24,14.51a12.11,12.11,0,0,0,6.16-1.53c7.66-4.42,9.38-18.19,5.42-35.47C555.84,935.06,566.88,926.66,566.88,917.83Zm-39.72-53.49v0a6.32,6.32,0,0,1,3.1.71c3.71,2.13,5.32,10.23,4.07,20.64-.3,2.56-.79,5.26-1.39,8a133,133,0,0,0-17.32-3,132.78,132.78,0,0,0-11.34-13.63C513.16,868.87,521.49,864.35,527.16,864.34Zm-51.32,67.45q1.92,3.27,3.93,6.38c-3.87-.57-7.61-1.28-11.18-2.15,1-3.52,2.26-7.15,3.68-10.77C473.39,927.43,474.56,929.61,475.84,931.79Zm-7.33-32.15c3.57-.84,7.33-1.58,11.23-2.15-1.33,2.1-2.67,4.25-3.92,6.46s-2.43,4.36-3.55,6.54A114.8,114.8,0,0,1,468.51,899.64Zm6.95,18.27c1.69-3.65,3.6-7.31,5.65-10.88s4.3-7.17,6.57-10.41c4.06-.36,8.18-.55,12.32-.55s8.23.19,12.27.52c2.26,3.24,4.47,6.71,6.6,10.36s4,7.2,5.67,10.85c-1.72,3.66-3.6,7.31-5.65,10.88s-4.3,7.17-6.57,10.42c-4.06.35-8.18.54-12.32.54s-8.23-.19-12.27-.52c-2.26-3.24-4.47-6.7-6.6-10.36S477.18,921.56,475.46,917.91Zm48.7,13.8c1.25-2.18,2.42-4.39,3.54-6.57A114.8,114.8,0,0,1,531.46,936c-3.57.87-7.33,1.61-11.23,2.18C521.57,936.07,522.9,933.92,524.16,931.71Zm0-27.84c-1.25-2.18-2.59-4.31-3.93-6.38q5.82.85,11.18,2.15c-1,3.52-2.26,7.15-3.68,10.77C526.58,908.23,525.41,906.05,524.13,903.87ZM507.5,890.15c-2.46-.1-5-.19-7.5-.19s-5.1.06-7.58.19a105.71,105.71,0,0,1,7.5-8.72A114.37,114.37,0,0,1,507.5,890.15Zm-37.93-25a6.08,6.08,0,0,1,3.14-.71v0c5.64,0,14,4.5,22.9,12.71a129.42,129.42,0,0,0-11.26,13.6,129.07,129.07,0,0,0-17.34,3c-.63-2.72-1.09-5.37-1.42-7.9C464.31,875.43,465.89,867.33,469.57,865.18Zm-6.87,69.23c-2.7-.85-5.26-1.78-7.63-2.78-9.66-4.12-15.9-9.52-15.9-13.8s6.24-9.71,15.9-13.8c2.34-1,4.9-1.91,7.55-2.75a130.83,130.83,0,0,0,6.13,16.6A130.68,130.68,0,0,0,462.7,934.41Zm10.12,36.91a6.43,6.43,0,0,1-3.08-.73c-3.71-2.13-5.32-10.23-4.07-20.64.3-2.57.79-5.26,1.39-8a131.33,131.33,0,0,0,17.32,3,131.87,131.87,0,0,0,11.34,13.64C486.83,966.8,478.49,971.32,472.82,971.32Zm27.23-17.09a114.59,114.59,0,0,1-7.58-8.73c2.46.11,5,.19,7.5.19s5.1-.05,7.58-.19A105.91,105.91,0,0,1,500.05,954.23Zm30.38,16.25a6.08,6.08,0,0,1-3.14.71c-5.64,0-14-4.5-22.9-12.71a129.42,129.42,0,0,0,11.26-13.6,129.07,129.07,0,0,0,17.34-3,75.63,75.63,0,0,1,1.42,7.93C535.69,960.23,534.11,968.32,530.43,970.48Zm14.48-38.85c-2.35,1-4.91,1.9-7.56,2.75a131.52,131.52,0,0,0-6.13-16.61,129,129,0,0,0,6-16.52c2.7.85,5.26,1.77,7.66,2.78,9.66,4.12,15.9,9.52,15.9,13.8S554.56,927.54,544.91,931.63Z" fill="#61dafb"></path><circle cx="499.97" cy="917.83" r="12.46" fill="#61dafb"></circle></g><path d="M426.88,961.63a69.32,69.32,0,0,0,65.62-47,71,71,0,0,1-118.19,6.64L374.26,936C387,951.63,405.15,961.63,426.88,961.63Z" opacity="0.1"></path><path d="M573.12,961.63a69.32,69.32,0,0,1-65.62-47,71,71,0,0,0,118.19,6.64l0,14.72C613,951.63,594.85,961.63,573.12,961.63Z" opacity="0.1"></path><path d="M407,943.81A69.33,69.33,0,0,1,380.42,831.7" fill="#633749"></path><path d="M407,943.81a57.14,57.14,0,0,1-31.21-16l-1.62-1.6c-.53-.54-1-1.13-1.53-1.69s-1-1.15-1.48-1.73a22,22,0,0,1-1.43-1.79c-.9-1.23-1.81-2.46-2.68-3.72l-2.37-3.93a69,69,0,0,1-6.71-17.13,70.52,70.52,0,0,1-1.69-18.3,64.09,64.09,0,0,1,3.4-17.93c.26-.71.49-1.43.76-2.14l.88-2.1c.55-1.4,1.26-2.74,1.91-4.09a60.79,60.79,0,0,1,4.74-7.63c.85-1.21,1.82-2.35,2.75-3.49s1.94-2.23,3-3.23a47.65,47.65,0,0,1,6.73-5.59c-5.79,10-9.9,20.19-11.66,30.67A78.09,78.09,0,0,0,367.61,878a84.63,84.63,0,0,0,2,15.41,80.81,80.81,0,0,0,5.12,14.65,76.2,76.2,0,0,0,8.08,13.47,79,79,0,0,0,10.81,11.95A115,115,0,0,0,407,943.81Z" fill="#592d3d"></path><path d="M593.05,943.81A69.33,69.33,0,0,0,619.58,831.7" fill="#633749"></path><path d="M593.05,943.81a115,115,0,0,0,13.35-10.29,79,79,0,0,0,10.81-11.95,76.2,76.2,0,0,0,8.08-13.47,80.81,80.81,0,0,0,5.12-14.65,84.63,84.63,0,0,0,2-15.41,78.09,78.09,0,0,0-1.15-15.67c-1.76-10.48-5.87-20.64-11.66-30.67a47.65,47.65,0,0,1,6.73,5.59c1.08,1,2,2.14,3,3.23s1.9,2.28,2.75,3.49a60.79,60.79,0,0,1,4.74,7.63c.65,1.35,1.36,2.69,1.91,4.09l.88,2.1c.27.71.5,1.43.76,2.14a64.09,64.09,0,0,1,3.4,17.93,70.52,70.52,0,0,1-1.69,18.3,69,69,0,0,1-6.71,17.13L633,917.26c-.87,1.26-1.78,2.49-2.68,3.72a22,22,0,0,1-1.43,1.79c-.49.58-1,1.16-1.48,1.73s-1,1.15-1.53,1.69l-1.62,1.6A57.14,57.14,0,0,1,593.05,943.81Z" fill="#592d3d"></path><path d="M670.06,788.32q3.3-3.32,6.5-6.71c45.16-54.71,48.7-112.39,57.87-148.37V619l-2.44.84c.83-1.52,1.65-3,2.44-4.56-.06-.1-3.49,3.38-3.55,3.28A33.65,33.65,0,0,1,725.8,622l-32.55,11.28a220.36,220.36,0,0,1-43.89,3.82c-63-.26-63.24-14.87-113.2-20l-96.49,1.58c-25.69,3.84-37.06,11.81-88,12.85-44.15.9-83.62-10-83.62-10v12.68c14,36.84,4.58,64.43,29,110.49,0-.65,0-1.31-.05-2-4.39-21.71,0-41.57,2.12-49.19.21-1.88.36-2.92.36-2.92v-.07c0-.12,0-.2,0-.2l0,.1c0,.14.11.45.22.9.23-.72.36-1.11.36-1.11s.89,4.91,2.54,12.74c3.93,15.48,11.16,43,19.45,70.08.92,2.43,1.87,4.81,2.84,7.11.07.21.15.44.23.65,27.94,29.88,62.13,55.36,93.14,74.5,3.34,2,6.51,3.87,9.48,5.61a86.4,86.4,0,0,1,2.41-43.06s.07.38.21,1.08c.24-.77.4-1.19.4-1.19s11.43,47.45,34.52,62.83c.57.24,1.15.47,1.73.66l-.44.16.1.06c.58.33,1.18.65,1.77,1a208.45,208.45,0,0,0,21.34,8.53c5.41,1.57,9.84,2.39,12,2.39,4.75,0,32-10.61,48.69-49.07,1.1-3.27,1.63-5.32,1.63-5.32l.28.69c.11-.27.22-.53.32-.8A56,56,0,0,1,560.7,869a526,526,0,0,0,72.06-47.55l0-.11c.27-.64.53-1.29.8-1.94l.06-.13.81-2v0l.84-2.08v0c14.48-35.83,23.58-89,23.58-89,.06-.18.28.09.6.74,0-.55,0-.85,0-.85S675.72,748.49,670.06,788.32Z" fill="#D69AC7"></path><path d="M670.06,788.32q3.3-3.32,6.5-6.71c45.16-54.71,48.7-112.39,57.87-148.37V619l-2.44.84c.83-1.52,1.65-3,2.44-4.56-.06-.1-3.49,3.38-3.55,3.28A33.65,33.65,0,0,1,725.8,622l-32.55,11.28a220.36,220.36,0,0,1-43.89,3.82c-63-.26-63.24-14.87-113.2-20l-96.49,1.58c-25.69,3.84-37.06,11.81-88,12.85-44.15.9-83.62-10-83.62-10v12.68c14,36.84,4.58,64.43,29,110.49,0-.65,0-1.31-.05-2-4.39-21.71,0-41.57,2.12-49.19.21-1.88.36-2.92.36-2.92v-.07c0-.12,0-.2,0-.2l0,.1c0,.14.11.45.22.9.23-.72.36-1.11.36-1.11s.89,4.91,2.54,12.74c3.93,15.48,11.16,43,19.45,70.08.92,2.43,1.87,4.81,2.84,7.11.07.21.15.44.23.65,27.94,29.88,62.13,55.36,93.14,74.5,3.34,2,6.51,3.87,9.48,5.61a86.4,86.4,0,0,1,2.41-43.06s.07.38.21,1.08c.24-.77.4-1.19.4-1.19s11.43,47.45,34.52,62.83c.57.24,1.15.47,1.73.66l-.44.16.1.06c.58.33,1.18.65,1.77,1a208.45,208.45,0,0,0,21.34,8.53c5.41,1.57,9.84,2.39,12,2.39,4.75,0,32-10.61,48.69-49.07,1.1-3.27,1.63-5.32,1.63-5.32l.28.69c.11-.27.22-.53.32-.8A56,56,0,0,1,560.7,869a526,526,0,0,0,72.06-47.55l0-.11c.27-.64.53-1.29.8-1.94l.06-.13.81-2v0l.84-2.08v0c14.48-35.83,23.58-89,23.58-89,.06-.18.28.09.6.74,0-.55,0-.85,0-.85S675.72,748.49,670.06,788.32Z" fill="#D69AC7"></path><path d="M670.06,788.32q3.3-3.32,6.5-6.71c45.16-54.71,48.7-112.39,57.87-148.37V619l-2.44.84c.83-1.52,1.65-3,2.44-4.56-.06-.1-3.49,3.38-3.55,3.28A33.65,33.65,0,0,1,725.8,622l-32.55,11.28a220.36,220.36,0,0,1-43.89,3.82c-63-.26-78.3-19.69-113.2-20s-76.95-1.23-96.49,1.58-37.06,11.81-88,12.85c-44.15.9-83.62-10-83.62-10v12.68c14,36.84,4.58,64.43,29,110.49,0-.65,0-1.31-.05-2-4.39-21.71,0-41.57,2.12-49.19.21-1.88.36-2.92.36-2.92v-.07c0-.12,0-.2,0-.2l0,.1c0,.14.11.45.22.9.23-.72.36-1.11.36-1.11s.89,4.91,2.54,12.74c3.93,15.48,11.16,43,19.45,70.08.92,2.43,1.87,4.81,2.84,7.11.07.21.15.44.23.65,27.94,29.88,62.13,55.36,93.14,74.5,3.34,2,6.51,3.87,9.48,5.61a86.4,86.4,0,0,1,2.41-43.06s.07.38.21,1.08c.24-.77.4-1.19.4-1.19s11.43,47.45,34.52,62.83c.57.24,1.15.47,1.73.66l-.44.16.1.06c.58.33,1.18.65,1.77,1a208.45,208.45,0,0,0,21.34,8.53c5.41,1.57,9.84,2.39,12,2.39,4.75,0,32-10.61,48.69-49.07,1.1-3.27,1.63-5.32,1.63-5.32l.28.69c.11-.27.22-.53.32-.8A56,56,0,0,1,560.7,869a526,526,0,0,0,72.06-47.55l0-.11c.27-.64.53-1.29.8-1.94l.06-.13.81-2v0l.84-2.08v0c14.48-35.83,23.58-89,23.58-89,.06-.18.28.09.6.74,0-.55,0-.85,0-.85S675.72,748.49,670.06,788.32Z" fill="#D69AC7"></path><path d="M343.5,706.91a23.12,23.12,0,0,0,13.79,5.8C343,701.34,337.78,690.32,336,685.36A271.66,271.66,0,0,1,326,630.81a329.37,329.37,0,0,1-57.87-9.33v12.68c14,36.84,4.58,64.43,29,110.49,0-.65,0-1.31-.05-2-4.39-21.71,0-41.57,2.12-49.19.21-1.88.36-2.92.36-2.92v-.07c0-.12,0-.2,0-.2l0,.1c0,.14.11.45.22.9.23-.72.36-1.11.36-1.11s.89,4.91,2.54,12.74c3.93,15.48,11.16,43,19.45,70.08.92,2.43,1.87,4.81,2.84,7.11.07.21.15.44.23.65,27.94,29.88,62.13,55.36,93.14,74.5,3.34,2,6.51,3.87,9.48,5.61a86.4,86.4,0,0,1,2.41-43.06s.07.38.21,1.08c.24-.77.4-1.19.4-1.19s11.43,47.45,34.52,62.83c.57.24,1.15.47,1.73.66l-.44.16.1.06c.58.33,1.18.65,1.77,1a208.45,208.45,0,0,0,21.34,8.53c5.41,1.57,9.84,2.39,12,2.39,3.53,0,19.51-5.88,34.33-24.72C466.94,846.06,380.78,800,343.5,706.91Z" fill="#C683B4"></path><path d="M433.87,816.78s9.49,9,29.29,4.09c-1.47,3.55-5.93,5.4-5.93,5.4s6.17,8.13,19.06,7.75c0,0-7.73,4.8-15.53,1.65A169.67,169.67,0,0,0,442.41,834l-13.51-9.38Z" fill="#C683B4"></path><path d="M351.7,631.52q-2.64.48-5.28.84c-.89.11-1.77.25-2.65.35l-2.66.24-5.32.38c-1.78.08-3.56.09-5.33.14-3.56.07-7.11-.07-10.67-.2s-7.1-.37-10.64-.71-7.07-.7-10.61-1.1-7.05-1-10.56-1.56a196.89,196.89,0,0,1-21-4.57l-3.85-1.08,2.1-7.57,3.88.94c6.61,1.61,13.47,3.13,20.27,4.49s13.68,2.64,20.57,3.72c3.44.59,6.89,1,10.35,1.56s6.92,1,10.39,1.31C337.67,629.65,344.64,630.36,351.7,631.52Z" fill="#592d3d"></path><path d="M669.31,789.07c10.26-10.26,9.29-9.63,17.79-20.94-1.5-34.48-30-53.71-30-53.71L659,726.08c.84.16,7.91,18.47,7.56,46.08Z" fill="#C683B4"></path><path d="M575.36,859.87c-5.72-24.9-22.42-29.15-22.42-29.15l3.21,19.45a96.48,96.48,0,0,1,3.9,19.14c5-2.72,10.16-5.66,15.45-8.78Z" fill="#C683B4"></path><path d="M340.09,735.62a90.52,90.52,0,0,0,6.59,20.14A121.79,121.79,0,0,0,357,773.89l3.09,4.18c.53.68,1,1.42,1.56,2.07l1.66,2c1.13,1.31,2.19,2.68,3.35,4l3.56,3.78c.6.62,1.16,1.28,1.77,1.89l1.9,1.78,3.77,3.58c2.58,2.32,5.33,4.45,7.94,6.75l-6.28,3.32-.06-4c.05-1.32.07-2.64.2-4s.23-2.65.46-4c.11-.66.18-1.32.32-2l.43-2a43.84,43.84,0,0,1,2.52-7.67A35,35,0,0,1,385,780c.34-.6.73-1.18,1.13-1.77.21-.29.4-.57.64-.87s.42-.54.78-.95l4.46-5.06.56,6.55c.1,1.09.3,2.4.53,3.61s.51,2.46.84,3.68a48,48,0,0,0,2.51,7.14,36.29,36.29,0,0,0,3.9,6.55,29,29,0,0,0,5.62,5.42,23.79,23.79,0,0,1-7-4.07,31.32,31.32,0,0,1-5.54-6.17,43.85,43.85,0,0,1-4-7.32c-.54-1.28-1-2.58-1.46-3.91a34,34,0,0,1-1.11-4.16l5,1.49c0,.08-.22.35-.34.55s-.26.46-.39.69c-.25.48-.5,1-.73,1.48a33.23,33.23,0,0,0-1.24,3.15,44.39,44.39,0,0,0-1.62,6.69,55.25,55.25,0,0,0-.65,6.94c-.06,1.16,0,2.34,0,3.51l.16,3.53.4,8.64-6.68-5.32c-1.44-1.15-2.87-2.29-4.29-3.46l-2.14-1.75c-.7-.59-1.44-1.14-2.09-1.79l-4-3.83-2-1.91c-.64-.67-1.25-1.36-1.86-2.05l-3.67-4.15c-1.21-1.39-2.26-2.92-3.38-4.39a105.25,105.25,0,0,1-6.17-9.19,91.82,91.82,0,0,1-8.63-20.3C340.61,750.19,339.43,742.84,340.09,735.62Z" fill="#592d3d"></path><path d="M638.78,724.34A5.35,5.35,0,0,1,640,726a16.7,16.7,0,0,1,.84,1.94A33.87,33.87,0,0,1,642,732a58.47,58.47,0,0,1,1.08,8.32,94.26,94.26,0,0,1-.54,16.71,109.35,109.35,0,0,1-9,32.28A90.58,90.58,0,0,1,614.3,817a70.11,70.11,0,0,1-28.51,17,111.55,111.55,0,0,0,23.91-21.31A118.63,118.63,0,0,0,626.25,786a157.47,157.47,0,0,0,10.09-30,151.49,151.49,0,0,0,2.81-15.76c.32-2.65.54-5.32.63-8a33.51,33.51,0,0,0-.08-4,14.64,14.64,0,0,0-.26-2A5.74,5.74,0,0,0,638.78,724.34Z" fill="#ffffff"></path><path d="M262.51,621.57c22.24,43.9,7.22,72.38,35.18,124.3-7-29,2.43-55.68,2.43-55.68S310,744.78,325,780.12c7.28,23.46,69.85,61.4,103.55,81.17a86.33,86.33,0,0,1,2.32-43.58s11.89,49.36,35.91,63.71c13.43,7.58,30.15,11.89,35.13,11.89s34.53-11.58,50.92-54.5a56,56,0,0,1,7.9,30.68c22.18-12,53.39-25.68,72.45-47.65C659.52,787.15,659.52,726,659.52,726S676,748.85,669.93,789.3c61.76-68.3,54.34-143.14,71.42-175.57" fill="none" stroke="#592d3d" stroke-miterlimit="10" stroke-width="12px"></path><path d="M734.38,616.77a3.8,3.8,0,0,0,1.16,1.29,4,4,0,0,0,2.15.7,3.81,3.81,0,0,0,1.68-.34h0l-.09,0-.2.11-.48.24-1,.51-2,1q-2,1-4,2c-2.69,1.32-5.41,2.57-8.13,3.81s-5.5,2.41-8.27,3.57-5.6,2.23-8.47,3.26c-1.44.51-2.89,1-4.39,1.43a39.36,39.36,0,0,1-4.75,1.15c-.47.08-.81.11-1.18.16l-1.12.13c-.74.09-1.48.16-2.23.23-1.49.14-3,.3-4.49.4a85.55,85.55,0,0,1-18.09-.43c5.86-1.58,11.62-2.89,17.37-4.29l8.59-2a35.39,35.39,0,0,0,3.81-1.36c1.31-.52,2.63-1.14,4-1.72,2.65-1.19,5.29-2.47,7.93-3.77s5.29-2.61,7.93-3.93l7.94-4,4-2,2-1,1-.48.53-.25.3-.13.16-.08.05,0a4.11,4.11,0,0,1,5.19,1.57l2.13,3.38-7.06,4.19Z" fill="#592d3d"></path><path d="M271.4,576.82c-1-28.36,18-52.36,43.28-63.56a62.37,62.37,0,0,1,8.16-2.7,70,70,0,0,1,42.21,2.68A71.67,71.67,0,0,1,374,517.4c29.53,15.88,42.79,53.25,31.36,83.46a61.68,61.68,0,0,1-4.18,8.82,54.68,54.68,0,0,1-17.51,20.83,69.25,69.25,0,0,1-7.85,5c-27.38,13-64.38,9-86.45-11.4a69.35,69.35,0,0,1-6.11-7.47,64.89,64.89,0,0,1-5.57-9.5A55.78,55.78,0,0,1,272,585.39,75.67,75.67,0,0,1,271.4,576.82Z" fill="#6B3D34"></path><path d="M269.77,558.47c-1-28.36,18-52.36,43.28-63.56a62.23,62.23,0,0,1,8.15-2.7,70,70,0,0,1,42.22,2.68,71.54,71.54,0,0,1,8.92,4.16c29.53,15.89,42.79,53.25,31.36,83.46a59.6,59.6,0,0,1-4.18,8.82,63.85,63.85,0,0,1-4.71,7.8,64.78,64.78,0,0,1-5.68,7,63.08,63.08,0,0,1-7.12,6.07,68.37,68.37,0,0,1-7.85,5c-27.38,13-64.38,9-86.44-11.4a67.24,67.24,0,0,1-6.11-7.47,65,65,0,0,1-5.58-9.5A55.59,55.59,0,0,1,270.32,567,71.3,71.3,0,0,1,269.77,558.47Z" fill="#ffffff" stroke="#592d3d" stroke-miterlimit="10" stroke-width="12px"></path><circle cx="338.51" cy="559.08" r="12.24" fill="#592d3d"></circle><line x1="715.03" y1="559.08" x2="603.4" y2="559.08" fill="none" stroke="#592d3d" stroke-linecap="round" stroke-miterlimit="10" stroke-width="16px"></line><path d="M627,574.16a114.14,114.14,0,0,1,13.07-1.56c4.36-.3,8.72-.43,13.08-.44s8.71.14,13.07.43a114.34,114.34,0,0,1,13.08,1.57,112.18,112.18,0,0,1-13.08,1.58q-6.54.43-13.07.42t-13.08-.43A112,112,0,0,1,627,574.16Z" fill="#592d3d"></path><path d="M243.89,489.13c5.64,15.83,20.9,24.06,33.4,26.94,13.06-20.24,56.65-28.92,89.37-17.44,27.8,5-10.81-25.57-72.47-9-2.31.85-14.56,2.95-30.28-9.19-2.19-1.69,4.68,13.71,12.5,20C265.06,500.21,263.2,500.22,243.89,489.13Z" fill="#592d3d" fill-rule="evenodd"></path><path d="M443.14,621.86c0-18.9,113.72-16.06,113.72,0a56.86,56.86,0,0,1-113.72,0Z" fill="#592d3d"></path><path d="M443.14,621.86c0-18.9,113.72-16.06,113.72,0a56.86,56.86,0,0,1-113.72,0Z" fill="none" stroke="#592d3d" stroke-miterlimit="10" stroke-width="6px"></path><path d="M532.49,646.6c0-8.06-14.55-14.6-32.49-14.6s-32.49,6.54-32.49,14.6h0v44.34c0,14.41,14.55,26.08,32.49,26.08s32.49-11.67,32.49-26.08V646.61Z" fill="#f28195"></path><path d="M532.49,646.6c0-8.06-14.55-14.6-32.49-14.6s-32.49,6.54-32.49,14.6h0v44.34c0,14.41,14.55,26.08,32.49,26.08s32.49-11.67,32.49-26.08V646.61Z" fill="none" stroke="#592d3d" stroke-miterlimit="10" stroke-width="8px"></path><path d="M479.31,626.6l.91-.21.76-.14c.49-.08,1-.14,1.46-.18a21.42,21.42,0,0,1,2.89-.1,25,25,0,0,1,5.79.81,21.39,21.39,0,0,1,10.34,6.11A20.07,20.07,0,0,1,506.54,643a17.19,17.19,0,0,1-1.37,10.35c-2.08-2.93-3.66-5.55-5.32-7.76a27.26,27.26,0,0,0-2.46-3,14.09,14.09,0,0,0-2.69-2.16,15.31,15.31,0,0,0-6.11-2.08,25.67,25.67,0,0,0-3.43-.22c-.59,0-1.18,0-1.76,0l-.85.06-.4,0c-.09,0-.29,0-.22,0Z" fill="#592d3d"></path><path d="M500,233.25c-135.7,0-247.73,101.33-264.56,232.45a307.11,307.11,0,0,0,70.16-98.91A919.45,919.45,0,0,0,500,387.94a899.57,899.57,0,0,0,194.4-21.15,307.11,307.11,0,0,0,70.16,98.91C747.73,334.58,635.7,233.25,500,233.25Z" fill="#D69AC7"></path><path d="M305.6,366.79q15.94,3.45,32.07,6.35c10.61-35.4,27.23-73.88,51.13-115.66h0c-1.33.62-2.66,1.24-4,1.87l-.17.08c-1.31.63-2.62,1.27-3.92,1.93l-.59.29c-1.22.61-2.44,1.24-3.65,1.88l-1,.53c-3.76,2-7.48,4.07-11.13,6.23l-.8.47-.14.09q-1.73,1-3.42,2.07l-.87.54q-5.36,3.35-10.55,6.93l-1.08.75c-1,.71-2,1.42-3,2.14l-.71.52-.15.1q-3.27,2.39-6.46,4.84l-.62.48c-1,.78-2,1.58-3,2.39l-1.17.94-2.41,2-.78.65c-2.05,1.71-4.06,3.45-6.06,5.22l-1.14,1-2.69,2.45L318,305q-4.28,4-8.37,8.17l-1,1c-.22.22-.43.44-.64.67-.7.72-1.39,1.44-2.08,2.17-.46.49-.92,1-1.37,1.48q-2.06,2.2-4.06,4.46l-.48.55c-.31.35-.63.7-.94,1.06L297,327c-.11.14-.22.27-.34.4l-1.2,1.43c-.61.72-1.21,1.45-1.81,2.18-.39.47-.78,1-1.17,1.44l-.66.82q-1.59,2-3.13,4l-.07.09c-.53.68-1.05,1.36-1.57,2.05-.4.52-.79,1.05-1.17,1.57l-1,1.33-1.22,1.68-1,1.35-1.41,2c-.57.81-1.13,1.62-1.69,2.44s-1.11,1.64-1.65,2.46l-.25.36-1.52,2.31-1.74,2.72c-.52.83-1,1.66-1.55,2.49h0c-.57.92-1.14,1.84-1.7,2.77s-1,1.68-1.48,2.52-.92,1.56-1.36,2.34l-.57,1-1.13,2c-.42.77-.85,1.53-1.26,2.3-.14.25-.28.5-.41.75-.42.78-.84,1.57-1.25,2.36s-.68,1.29-1,1.94l-.84,1.63-.93,1.88c-.39.78-.78,1.55-1.16,2.34l-.82,1.71-.3.65c-.44.92-.87,1.85-1.3,2.78l-.72,1.59c-.41.91-.81,1.83-1.21,2.75l-1,2.34c-.45,1.07-.88,2.14-1.32,3.21-.32.77-.63,1.53-.94,2.3-.11.26-.21.53-.31.8-.35.88-.69,1.77-1,2.66s-.61,1.57-.9,2.36l-.16.43c-.38,1-.74,2-1.1,3.06s-.64,1.79-1,2.69c-.37,1.08-.73,2.15-1.08,3.23-.3.91-.6,1.82-.89,2.73-.35,1.09-.68,2.17-1,3.26-.28.92-.55,1.84-.82,2.77-.32,1.09-.64,2.19-.94,3.29-.26.92-.51,1.85-.75,2.78-.3,1.11-.59,2.22-.87,3.34-.24.92-.46,1.86-.68,2.79-.27,1.12-.54,2.25-.8,3.37-.21.93-.41,1.87-.61,2.8-.24,1.14-.49,2.29-.73,3.44-.18.91-.35,1.82-.52,2.74s-.39,2-.57,3l-.18,1-.33,2c-.18,1.09-.37,2.19-.54,3.29,0,.21-.07.42-.1.63q-.45,3-.84,6A307.11,307.11,0,0,0,305.6,366.79Z" fill="#C683B4"></path><path d="M500,233.25c-135.7,0-247.73,101.33-264.56,232.45a307.11,307.11,0,0,0,70.16-98.91A919.45,919.45,0,0,0,500,387.94a899.57,899.57,0,0,0,194.4-21.15,307.11,307.11,0,0,0,70.16,98.91C747.73,334.58,635.7,233.25,500,233.25Z" fill="none" stroke="#592d3d" stroke-miterlimit="10" stroke-width="12px"></path><path d="M506.21,250.1c-12.57,1.68-24.94,3.38-37.16,5.76s-24.29,5.18-36.18,8.64-23.62,7.48-35.18,12.07-22.95,9.73-34.46,15.05a170,170,0,0,1,31.87-20.78,204.11,204.11,0,0,1,73.07-21.19A172.76,172.76,0,0,1,506.21,250.1Z" fill="#ffffff"></path><path d="M427.29,501.13l-13-4.39-31.2-10.54-37.6-12.71-32.49-11c-5.27-1.78-10.51-3.68-15.81-5.34l-.22-.08a10,10,0,0,0-5.32,19.29l13,4.39,31.2,10.54,37.6,12.7,32.49,11c5.26,1.78,10.5,3.67,15.81,5.34l.22.08a10,10,0,0,0,5.32-19.29Z" fill="#592d3d"></path><path d="M697.18,453.9,684.46,459l-30.54,12.31-36.81,14.84L585.3,499q-7.74,3.12-15.47,6.24l-.22.08c-2.51,1-4.56,2.17-6,4.6a10.18,10.18,0,0,0-1,7.71,10.06,10.06,0,0,0,4.6,6c2.22,1.18,5.26,2,7.7,1l12.73-5.13,30.54-12.31L655,492.33l31.81-12.82c5.15-2.08,10.32-4.15,15.47-6.24l.22-.09c2.51-1,4.56-2.17,6-4.59a10,10,0,0,0-3.59-13.69c-2.22-1.17-5.27-2-7.71-1Z" fill="#592d3d"></path><path d="M725,631.82a265.34,265.34,0,0,0,26.3-59.43c-17.24,35.74-49.84,65.46-92.11,65.46A106.75,106.75,0,0,1,552.58,531.22,105.67,105.67,0,0,1,560.41,491H758a105.33,105.33,0,0,1,7.62,33.39c.73-8,1.12-16.19,1.12-24.42a269.16,269.16,0,0,0-1.58-29H575v0H423.14v0H234.83a269.16,269.16,0,0,0-1.58,29c0,4.73.14,9.42.38,14.09A104.92,104.92,0,0,1,240.1,491H437.7a106.7,106.7,0,0,1-98.8,146.82c-38.8,0-68.82-25.83-87.48-56.89a266.14,266.14,0,0,0,24.76,52.84c19.39,12.07,38.25,24.05,62.72,24.05A126.78,126.78,0,0,0,465.53,531.22c0-1.81,0-3.61-.12-5.4,23.38-8.23,45.52-8.35,67.31-.36-.08,1.91-.14,3.83-.14,5.76A126.78,126.78,0,0,0,659.21,657.85C685,657.85,705,645.1,725,631.82ZM535.26,505.18c-23.4-7.55-47.64-7.42-72.33.39A124.62,124.62,0,0,0,459,491h80.1A122.6,122.6,0,0,0,535.26,505.18Z" opacity="0.15"></path><path d="M233.59,469.82s.41,32.23.41,50.2c0,64.41,40.48,116.63,104.9,116.63A116.68,116.68,0,0,0,444.2,469.82Z" fill="#592d3d" opacity="0.95"></path><path d="M553.91,469.82a116.68,116.68,0,0,0,105.3,166.83c64.42,0,107.54-52.22,107.54-116.63,0-18-2.23-50.2-2.23-50.2Z" fill="#592d3d" opacity="0.95"></path><path d="M320,626.86,443.07,503.78a93.05,93.05,0,0,0-10-17.27L302.72,616.88A93.62,93.62,0,0,0,320,626.86Z" fill="#ffffff" opacity="0.25"></path><path d="M455.86,507.53c29.52-12,58.53-12.42,87,0" fill="none" stroke="#592d3d" stroke-miterlimit="10" stroke-width="20px"></path><path d="M274.28,504.75c2.06,6.51-5.94,11.51-11.94,12.51-6,0-10-4-12-9-1-5,0-10,4-13,5-2,12-4,16.44,1.12A11.7,11.7,0,0,1,274.28,504.75Z" fill="#ffffff"></path><path d="M285,500.93c-.61,4.33-6.61,4.33-7.61.33,0-3,1-4,3.84-4.1A3.77,3.77,0,0,1,285,500.93Z" fill="#ffffff"></path><path d="M645.19,618.92,751.47,512.64a93.89,93.89,0,0,0-2.41-11.22L634,616.51A94.31,94.31,0,0,0,645.19,618.92Z" fill="#ffffff" opacity="0.25"></path><path d="M590.68,505.73c2.06,6.51-5.94,11.51-11.94,12.51-6,0-10-4-12-9-1-5,0-10,4-13,5-2,12-4,16.45,1.12A11.69,11.69,0,0,1,590.68,505.73Z" fill="#ffffff"></path><path d="M601.35,501.91c-.61,4.33-6.61,4.33-7.61.33,0-3,1-4,3.85-4.1A3.76,3.76,0,0,1,601.35,501.91Z" fill="#ffffff"></path><path d="M233.59,469.82s-.34,31.69.41,50.2c2.6,64.36,40.48,116.63,104.9,116.63A116.68,116.68,0,0,0,444.2,469.82Z" fill="none" stroke="#592d3d" stroke-miterlimit="10" stroke-width="20px"></path><path d="M553.91,469.82a116.68,116.68,0,0,0,105.3,166.83c64.42,0,107.54-51.53,107.54-115.94,0-18-2.23-50.89-2.23-50.89Z" fill="none" stroke="#592d3d" stroke-miterlimit="10" stroke-width="20px"></path><line x1="423.14" y1="469.81" x2="574.97" y2="469.81" fill="none" stroke="#592d3d" stroke-miterlimit="10" stroke-width="20px"></line></g></svg>